# Rhino

mtllib 1.mtl
v -12.2282600402832 77.9211959838867 -10
v -12.2282600402832 77.9211959838867 4.02610055516561E-07
v -12.2282600402832 -1.65856391731722E-07 -10
v -12.2282600402832 -1.65856391731722E-07 4.02610055516561E-07
v -12.2282600402832 -1.65856391731722E-07 -10
v -12.2282600402832 -1.65856391731722E-07 4.02610055516561E-07
v 3.60308172275836E-06 -1.65856391731722E-07 -10
v 3.60308172275836E-06 -1.65856391731722E-07 4.02610055516561E-07
v 3.60308172275836E-06 -1.65856391731722E-07 -10
v 3.60308172275836E-06 -1.65856391731722E-07 4.02610055516561E-07
v 3.60308172275836E-06 100 -10
v 3.60308172275836E-06 100 4.02610055516561E-07
v 3.60308172275836E-06 100 -10
v 3.60308172275836E-06 100 4.02610055516561E-07
v -7.88043594360352 100 -10
v -7.88043594360352 100 4.02610055516561E-07
v -7.88043594360352 100 -10
v -7.88043594360352 100 4.02610055516561E-07
v -9.75712966918945 96.7476196289063 -10
v -9.75712966918945 96.7476196289063 4.02610055516561E-07
v -12.1942939758301 93.4442901611328 -10
v -12.1942939758301 93.4442901611328 4.02610055516561E-07
v -15.1919136047363 90.0900115966797 -10
v -15.1919136047363 90.0900115966797 4.02610055516561E-07
v -18.7499961853027 86.6847839355469 -10
v -18.7499961853027 86.6847839355469 4.02610055516561E-07
v -22.7496604919434 83.3814544677734 -10
v -22.7496604919434 83.3814544677734 4.02610055516561E-07
v -27.0720100402832 80.332878112793 -10
v -27.0720100402832 80.332878112793 4.02610055516561E-07
v -31.7170524597168 77.5390625 -10
v -31.7170524597168 77.5390625 4.02610055516561E-07
v -36.6847801208496 75 -10
v -36.6847801208496 75 4.02610055516561E-07
v -36.6847801208496 75 -10
v -36.6847801208496 75 4.02610055516561E-07
v -36.6847801208496 63.1793479919434 -10
v -36.6847801208496 63.1793479919434 4.02610055516561E-07
v -36.6847801208496 63.1793479919434 -10
v -36.6847801208496 63.1793479919434 4.02610055516561E-07
v -30.6216011047363 65.8118209838867 -10
v -30.6216011047363 65.8118209838867 4.02610055516561E-07
v -23.8451118469238 69.4972839355469 -10
v -23.8451118469238 69.4972839355469 4.02610055516561E-07
v -17.3403511047363 73.7092361450195 -10
v -17.3403511047363 73.7092361450195 4.02610055516561E-07
v -14.6102256774902 75.8152160644531 -10
v -14.6102256774902 75.8152160644531 4.02610055516561E-07
v -12.2282600402832 77.9211959838867 -10
v -12.2282600402832 77.9211959838867 4.02610055516561E-07
v -12.2282600402832 77.9211959838867 -10
v -12.2282600402832 -1.65856391731722E-07 -10
v 3.60308172275836E-06 -1.65856391731722E-07 -10
v 3.60308172275836E-06 100 -10
v -7.88043594360352 100 -10
v -9.75712966918945 96.7476196289063 -10
v -12.1942939758301 93.4442901611328 -10
v -15.1919136047363 90.0900115966797 -10
v -18.7499961853027 86.6847839355469 -10
v -22.7496604919434 83.3814544677734 -10
v -27.0720100402832 80.332878112793 -10
v -31.7170524597168 77.5390625 -10
v -36.6847801208496 75 -10
v -36.6847801208496 63.1793479919434 -10
v -30.6216011047363 65.8118209838867 -10
v -23.8451118469238 69.4972839355469 -10
v -17.3403511047363 73.7092361450195 -10
v -14.6102256774902 75.8152160644531 -10
v -12.2282600402832 77.9211959838867 4.02610055516561E-07
v -12.2282600402832 -1.65856391731722E-07 4.02610055516561E-07
v 3.60308172275836E-06 -1.65856391731722E-07 4.02610055516561E-07
v 3.60308172275836E-06 100 4.02610055516561E-07
v -7.88043594360352 100 4.02610055516561E-07
v -9.75712966918945 96.7476196289063 4.02610055516561E-07
v -12.1942939758301 93.4442901611328 4.02610055516561E-07
v -15.1919136047363 90.0900115966797 4.02610055516561E-07
v -18.7499961853027 86.6847839355469 4.02610055516561E-07
v -22.7496604919434 83.3814544677734 4.02610055516561E-07
v -27.0720100402832 80.332878112793 4.02610055516561E-07
v -31.7170524597168 77.5390625 4.02610055516561E-07
v -36.6847801208496 75 4.02610055516561E-07
v -36.6847801208496 63.1793479919434 4.02610055516561E-07
v -30.6216011047363 65.8118209838867 4.02610055516561E-07
v -23.8451118469238 69.4972839355469 4.02610055516561E-07
v -17.3403511047363 73.7092361450195 4.02610055516561E-07
v -14.6102256774902 75.8152160644531 4.02610055516561E-07
vt 0 0
vt 0 0.55997359752655
vt 0.383791744709015 0
vt 0.383791744709015 0.55997359752655
vt 0.383791744709015 0
vt 0.383791744709015 0.55997359752655
vt 0.444020599126816 0
vt 0.444020599126816 0.55997359752655
vt 0.444020599126816 0
vt 0.444020599126816 0.55997359752655
vt 0.936558902263641 0
vt 0.936558902263641 0.55997359752655
vt 0.936558902263641 0
vt 0.936558902263641 0.55997359752655
vt 0.975373089313507 0
vt 0.975373089313507 0.55997359752655
vt 0.975373089313507 0
vt 0.975373089313507 0.55997359752655
vt 0.976604402065277 0
vt 0.976604402065277 0.55997359752655
vt 0.977835774421692 0
vt 0.977835774421692 0.55997359752655
vt 0.979067146778107 0
vt 0.979067146778107 0.55997359752655
vt 0.980298459529877 0
vt 0.980298459529877 0.55997359752655
vt 0.981529831886292 0
vt 0.981529831886292 0.55997359752655
vt 0.982761144638062 0
vt 0.982761144638062 0.55997359752655
vt 0.983992516994476 0
vt 0.983992516994476 0.55997359752655
vt 0.985223829746246 0
vt 0.985223829746246 0.55997359752655
vt 0.985223829746246 0
vt 0.985223829746246 0.55997359752655
vt 0.990149259567261 0
vt 0.990149259567261 0.55997359752655
vt 0.990149259567261 0
vt 0.990149259567261 0.55997359752655
vt 0.992611944675446 0
vt 0.992611944675446 0.55997359752655
vt 0.99507462978363 0
vt 0.99507462978363 0.55997359752655
vt 0.997537314891815 0
vt 0.997537314891815 0.55997359752655
vt 0.998768627643585 0
vt 0.998768627643585 0.55997359752655
vt 1 0
vt 1 0.55997359752655
vt 0.0796174854040146 0.706649422645569
vt 0.360605955123901 0.706649422645569
vt 0.360605955123901 0.559974193572998
vt 0 0.559974193572998
vt 0 0.654498219490051
vt 0.01172826718539 0.677008807659149
vt 0.0236402675509453 0.706242024898529
vt 0.0357360020279884 0.742197811603546
vt 0.0480154678225517 0.78487628698349
vt 0.0599274672567844 0.83285129070282
vt 0.0709208026528358 0.884696960449219
vt 0.0809954777359962 0.940413177013397
vt 0.0901514887809753 1
vt 0.132777467370033 1
vt 0.123284608125687 0.927273511886597
vt 0.109994612634182 0.84599095582962
vt 0.094806045293808 0.767967879772186
vt 0.0872117653489113 0.735220551490784
vt 0.0796174854040146 0.853324711322784
vt 0.360605955123901 0.853324711322784
vt 0.360605955123901 1
vt 0 1
vt 0 0.905475914478302
vt 0.01172826718539 0.882965326309204
vt 0.0236402675509453 0.853732168674469
vt 0.0357360020279884 0.817776322364807
vt 0.0480154678225517 0.775097906589508
vt 0.0599274672567844 0.727122843265533
vt 0.0709208026528358 0.675277233123779
vt 0.0809954777359962 0.619561016559601
vt 0.0901514887809753 0.559974193572998
vt 0.132777467370033 0.559974193572998
vt 0.123284608125687 0.632700681686401
vt 0.109994612634182 0.713983237743378
vt 0.094806045293808 0.792006313800812
vt 0.0872117653489113 0.82475358247757
vn -1 0 0
vn -1 0 0
vn -1 0 0
vn -1 0 0
vn 0 -1 0
vn 0 -1 0
vn 0 -1 0
vn 0 -1 0
vn 1 0 0
vn 1 0 0
vn 1 0 0
vn 1 0 0
vn 0 1 0
vn 0 1 0
vn 0 1 0
vn 0 1 0
vn -0.896306216716766 0.443435698747635 0
vn -0.896306216716766 0.443435698747635 0
vn -0.835364758968353 0.54969596862793 0
vn -0.835364758968353 0.54969596862793 0
vn -0.774661183357239 0.632376492023468 0
vn -0.774661183357239 0.632376492023468 0
vn -0.717845737934113 0.696202158927917 0
vn -0.717845737934113 0.696202158927917 0
vn -0.666409015655518 0.745586335659027 0
vn -0.666409015655518 0.745586335659027 0
vn -0.606727302074432 0.794910073280334 0
vn -0.606727302074432 0.794910073280334 0
vn -0.545880496501923 0.837863087654114 0
vn -0.545880496501923 0.837863087654114 0
vn -0.48511815071106 0.874448597431183 0
vn -0.48511815071106 0.874448597431183 0
vn -0.425508409738541 0.904954493045807 0
vn -0.425508409738541 0.904954493045807 0
vn -1 0 0
vn -1 0 0
vn -1 0 0
vn -1 0 0
vn 0.346222877502441 -0.938152313232422 0
vn 0.346222877502441 -0.938152313232422 0
vn 0.441507637500763 -0.897257506847382 0
vn 0.441507637500763 -0.897257506847382 0
vn 0.504883289337158 -0.863187611103058 0
vn 0.504883289337158 -0.863187611103058 0
vn 0.587045133113861 -0.809554219245911 0
vn 0.587045133113861 -0.809554219245911 0
vn 0.635886967182159 -0.771782159805298 0
vn 0.635886967182159 -0.771782159805298 0
vn 0.690210938453674 -0.723608255386353 0
vn 0.690210938453674 -0.723608255386353 0
vn 0 0 -1
vn 0 0 -1
vn 0 0 -1
vn 0 0 -1
vn 0 0 -1
vn 0 0 -1
vn 0 0 -1
vn 0 0 -1
vn 0 0 -1
vn 0 0 -1
vn 0 0 -1
vn 0 0 -1
vn 0 0 -1
vn 0 0 -1
vn 0 0 -1
vn 0 0 -1
vn 0 0 -1
vn 0 0 -1
vn 0 0 1
vn 0 0 1
vn 0 0 1
vn 0 0 1
vn 0 0 1
vn 0 0 1
vn 0 0 1
vn 0 0 1
vn 0 0 1
vn 0 0 1
vn 0 0 1
vn 0 0 1
vn 0 0 1
vn 0 0 1
vn 0 0 1
vn 0 0 1
vn 0 0 1
vn 0 0 1
f 65/65/65 64/64/64 63/63/63 62/62/62 61/61/61 60/60/60 59/59/59 \
58/58/58 57/57/57 56/56/56 55/55/55 54/54/54 53/53/53 52/52/52 \
51/51/51 68/68/68 67/67/67 66/66/66
f 81/81/81 82/82/82 83/83/83 84/84/84 85/85/85 86/86/86 69/69/69 \
70/70/70 71/71/71 72/72/72 73/73/73 74/74/74 75/75/75 76/76/76 \
77/77/77 78/78/78 79/79/79 80/80/80
f 1/1/1 3/3/3 4/4/4 2/2/2
f 5/5/5 7/7/7 8/8/8 6/6/6
f 9/9/9 11/11/11 12/12/12 10/10/10
f 13/13/13 15/15/15 16/16/16 14/14/14
f 17/17/17 19/19/19 20/20/20 18/18/18
f 19/19/19 21/21/21 22/22/22 20/20/20
f 21/21/21 23/23/23 24/24/24 22/22/22
f 23/23/23 25/25/25 26/26/26 24/24/24
f 25/25/25 27/27/27 28/28/28 26/26/26
f 27/27/27 29/29/29 30/30/30 28/28/28
f 29/29/29 31/31/31 32/32/32 30/30/30
f 31/31/31 33/33/33 34/34/34 32/32/32
f 35/35/35 37/37/37 38/38/38 36/36/36
f 39/39/39 41/41/41 42/42/42 40/40/40
f 41/41/41 43/43/43 44/44/44 42/42/42
f 43/43/43 45/45/45 46/46/46 44/44/44
f 45/45/45 47/47/47 48/48/48 46/46/46
f 47/47/47 49/49/49 50/50/50 48/48/48
