# Rhino

mtllib 4.mtl
v -12.2282752990723 -1.65856391731722E-07 -10
v -12.2282752990723 -1.65856391731722E-07 4.02610055516561E-07
v -4.02631303586531E-06 -1.65856391731722E-07 -10
v -4.02631303586531E-06 -1.65856391731722E-07 4.02610055516561E-07
v -4.02631303586531E-06 -1.65856391731722E-07 -10
v -4.02631303586531E-06 -1.65856391731722E-07 4.02610055516561E-07
v -4.02631303586531E-06 23.8451080322266 -10
v -4.02631303586531E-06 23.8451080322266 4.02610055516561E-07
v -4.02631303586531E-06 23.8451080322266 -10
v -4.02631303586531E-06 23.8451080322266 4.02610055516561E-07
v 13.4510765075684 23.8451080322266 -10
v 13.4510765075684 23.8451080322266 4.02610055516561E-07
v 13.4510765075684 23.8451080322266 -10
v 13.4510765075684 23.8451080322266 4.02610055516561E-07
v 13.4510765075684 35.0543479919434 -10
v 13.4510765075684 35.0543479919434 4.02610055516561E-07
v 13.4510765075684 35.0543479919434 -10
v 13.4510765075684 35.0543479919434 4.02610055516561E-07
v -4.02631303586531E-06 35.0543479919434 -10
v -4.02631303586531E-06 35.0543479919434 4.02610055516561E-07
v -4.02631303586531E-06 35.0543479919434 -10
v -4.02631303586531E-06 35.0543479919434 4.02610055516561E-07
v -4.02631303586531E-06 99.5923919677734 -10
v -4.02631303586531E-06 99.5923919677734 4.02610055516561E-07
v -4.02631303586531E-06 99.5923919677734 -10
v -4.02631303586531E-06 99.5923919677734 4.02610055516561E-07
v -9.98642349243164 99.5923919677734 -10
v -9.98642349243164 99.5923919677734 4.02610055516561E-07
v -9.98642349243164 99.5923919677734 -10
v -9.98642349243164 99.5923919677734 4.02610055516561E-07
v -55.4347877502441 35.0543479919434 -10
v -55.4347877502441 35.0543479919434 4.02610055516561E-07
v -55.4347877502441 35.0543479919434 -10
v -55.4347877502441 35.0543479919434 4.02610055516561E-07
v -55.4347877502441 23.8451080322266 -10
v -55.4347877502441 23.8451080322266 4.02610055516561E-07
v -55.4347877502441 23.8451080322266 -10
v -55.4347877502441 23.8451080322266 4.02610055516561E-07
v -12.2282752990723 23.8451080322266 -10
v -12.2282752990723 23.8451080322266 4.02610055516561E-07
v -12.2282752990723 23.8451080322266 -10
v -12.2282752990723 23.8451080322266 4.02610055516561E-07
v -12.2282752990723 -1.65856391731722E-07 -10
v -12.2282752990723 -1.65856391731722E-07 4.02610055516561E-07
v -12.2282752990723 35.0543479919434 -10
v -12.2282752990723 35.0543479919434 4.02610055516561E-07
v -43.4103126525879 35.0543479919434 -10
v -43.4103126525879 35.0543479919434 4.02610055516561E-07
v -43.4103126525879 35.0543479919434 -10
v -43.4103126525879 35.0543479919434 4.02610055516561E-07
v -12.2282752990723 79.9592361450195 -10
v -12.2282752990723 79.9592361450195 4.02610055516561E-07
v -12.2282752990723 79.9592361450195 -10
v -12.2282752990723 79.9592361450195 4.02610055516561E-07
v -12.2282752990723 35.0543479919434 -10
v -12.2282752990723 35.0543479919434 4.02610055516561E-07
v -12.2282752990723 -1.65856391731722E-07 -10
v -4.02631303586531E-06 -1.65856391731722E-07 -10
v -4.02631303586531E-06 23.8451080322266 -10
v 13.4510765075684 23.8451080322266 -10
v 13.4510765075684 35.0543479919434 -10
v -4.02631303586531E-06 35.0543479919434 -10
v -4.02631303586531E-06 99.5923919677734 -10
v -9.98642349243164 99.5923919677734 -10
v -55.4347877502441 35.0543479919434 -10
v -55.4347877502441 23.8451080322266 -10
v -12.2282752990723 23.8451080322266 -10
v -12.2282752990723 35.0543479919434 -10
v -43.4103126525879 35.0543479919434 -10
v -12.2282752990723 79.9592361450195 -10
v -12.2282752990723 -1.65856391731722E-07 4.02610055516561E-07
v -4.02631303586531E-06 -1.65856391731722E-07 4.02610055516561E-07
v -4.02631303586531E-06 23.8451080322266 4.02610055516561E-07
v 13.4510765075684 23.8451080322266 4.02610055516561E-07
v 13.4510765075684 35.0543479919434 4.02610055516561E-07
v -4.02631303586531E-06 35.0543479919434 4.02610055516561E-07
v -4.02631303586531E-06 99.5923919677734 4.02610055516561E-07
v -9.98642349243164 99.5923919677734 4.02610055516561E-07
v -55.4347877502441 35.0543479919434 4.02610055516561E-07
v -55.4347877502441 23.8451080322266 4.02610055516561E-07
v -12.2282752990723 23.8451080322266 4.02610055516561E-07
v -12.2282752990723 35.0543479919434 4.02610055516561E-07
v -43.4103126525879 35.0543479919434 4.02610055516561E-07
v -12.2282752990723 79.9592361450195 4.02610055516561E-07
vt 0 0
vt 0 0.533835709095001
vt 0.0714285746216774 0
vt 0.0714285746216774 0.533835709095001
vt 0.0714285746216774 0
vt 0.0714285746216774 0.533835709095001
vt 0.142857149243355 0
vt 0.142857149243355 0.533835709095001
vt 0.142857149243355 0
vt 0.142857149243355 0.533835709095001
vt 0.214285716414452 0
vt 0.214285716414452 0.533835709095001
vt 0.214285716414452 0
vt 0.214285716414452 0.533835709095001
vt 0.28571429848671 0
vt 0.28571429848671 0.533835709095001
vt 0.28571429848671 0
vt 0.28571429848671 0.533835709095001
vt 0.357142865657806 0
vt 0.357142865657806 0.533835709095001
vt 0.357142865657806 0
vt 0.357142865657806 0.533835709095001
vt 0.428571432828903 0
vt 0.428571432828903 0.533835709095001
vt 0.428571432828903 0
vt 0.428571432828903 0.533835709095001
vt 0.5 0
vt 0.5 0.533835709095001
vt 0.5 0
vt 0.5 0.533835709095001
vt 0.571428596973419 0
vt 0.571428596973419 0.533835709095001
vt 0.571428596973419 0
vt 0.571428596973419 0.533835709095001
vt 0.642857134342194 0
vt 0.642857134342194 0.533835709095001
vt 0.642857134342194 0
vt 0.642857134342194 0.533835709095001
vt 0.714285731315613 0
vt 0.714285731315613 0.533835709095001
vt 0.714285731315613 0
vt 0.714285731315613 0.533835709095001
vt 0.785714268684387 0
vt 0.785714268684387 0.533835709095001
vt 0.785714268684387 0
vt 0.785714268684387 0.533835709095001
vt 0.857142865657806 0
vt 0.857142865657806 0.533835709095001
vt 0.857142865657806 0
vt 0.857142865657806 0.533835709095001
vt 0.928571403026581 0
vt 0.928571403026581 0.533835709095001
vt 0.928571403026581 0
vt 0.928571403026581 0.533835709095001
vt 1 0
vt 1 0.533835709095001
vt 0.228076830506325 0.707613229751587
vt 0.228076830506325 0.624862253665924
vt 0.173469081521034 0.624862253665924
vt 0.173469081521034 0.533836245536804
vt 0.147798761725426 0.533836245536804
vt 0.147798761725426 0.624862253665924
vt 0 0.624862253665924
vt 0 0.692442238330841
vt 0.147798761725426 1
vt 0.173469081521034 1
vt 0.173469081521034 0.707613229751587
vt 0.147798761725426 0.707613229751587
vt 0.147798761725426 0.918628215789795
vt 0.04496194049716 0.707613229751587
vt 0.228076830506325 0.826222956180573
vt 0.228076830506325 0.908973932266235
vt 0.173469081521034 0.908973932266235
vt 0.173469081521034 1
vt 0.147798761725426 1
vt 0.147798761725426 0.908973932266235
vt 0 0.908973932266235
vt 0 0.841394007205963
vt 0.147798761725426 0.533836245536804
vt 0.173469081521034 0.533836245536804
vt 0.173469081521034 0.826222956180573
vt 0.147798761725426 0.826222956180573
vt 0.147798761725426 0.615208029747009
vt 0.04496194049716 0.826222956180573
vn 0 -1 0
vn 0 -1 0
vn 0 -1 0
vn 0 -1 0
vn 1 0 0
vn 1 0 0
vn 1 0 0
vn 1 0 0
vn 0 -1 0
vn 0 -1 0
vn 0 -1 0
vn 0 -1 0
vn 1 0 0
vn 1 0 0
vn 1 0 0
vn 1 0 0
vn 0 1 0
vn 0 1 0
vn 0 1 0
vn 0 1 0
vn 1 0 0
vn 1 0 0
vn 1 0 0
vn 1 0 0
vn 0 1 0
vn 0 1 0
vn 0 1 0
vn 0 1 0
vn -0.817611336708069 0.575770497322083 0
vn -0.817611336708069 0.575770497322083 0
vn -0.817611336708069 0.575770497322083 0
vn -0.817611336708069 0.575770497322083 0
vn -1 0 0
vn -1 0 0
vn -1 0 0
vn -1 0 0
vn 0 -1 0
vn 0 -1 0
vn 0 -1 0
vn 0 -1 0
vn -1 0 0
vn -1 0 0
vn -1 0 0
vn -1 0 0
vn 0 1 0
vn 0 1 0
vn 0 1 0
vn 0 1 0
vn 0.821386158466339 -0.570372521877289 0
vn 0.821386158466339 -0.570372521877289 0
vn 0.821386158466339 -0.570372521877289 0
vn 0.821386158466339 -0.570372521877289 0
vn -1 0 0
vn -1 0 0
vn -1 0 0
vn -1 0 0
vn 0 0 -1
vn 0 0 -1
vn 0 0 -1
vn 0 0 -1
vn 0 0 -1
vn 0 0 -1
vn 0 0 -1
vn 0 0 -1
vn 0 0 -1
vn 0 0 -1
vn 0 0 -1
vn 0 0 -1
vn 0 0 -1
vn 0 0 -1
vn 0 0 1
vn 0 0 1
vn 0 0 1
vn 0 0 1
vn 0 0 1
vn 0 0 1
vn 0 0 1
vn 0 0 1
vn 0 0 1
vn 0 0 1
vn 0 0 1
vn 0 0 1
vn 0 0 1
vn 0 0 1
f 1/1/1 3/3/3 4/4/4 2/2/2
f 5/5/5 7/7/7 8/8/8 6/6/6
f 9/9/9 11/11/11 12/12/12 10/10/10
f 13/13/13 15/15/15 16/16/16 14/14/14
f 17/17/17 19/19/19 20/20/20 18/18/18
f 21/21/21 23/23/23 24/24/24 22/22/22
f 25/25/25 27/27/27 28/28/28 26/26/26
f 29/29/29 31/31/31 32/32/32 30/30/30
f 33/33/33 35/35/35 36/36/36 34/34/34
f 37/37/37 39/39/39 40/40/40 38/38/38
f 41/41/41 43/43/43 44/44/44 42/42/42
f 45/45/45 47/47/47 48/48/48 46/46/46
f 49/49/49 51/51/51 52/52/52 50/50/50
f 53/53/53 55/55/55 56/56/56 54/54/54
f 58/58/58 57/57/57 67/67/67
f 69/69/69 67/67/67 66/66/66
f 70/70/70 69/69/69 65/65/65
f 66/66/66 65/65/65 69/69/69
f 62/62/62 68/68/68 70/70/70
f 68/68/68 67/67/67 69/69/69
f 64/64/64 70/70/70 65/65/65
f 68/68/68 59/59/59 67/67/67
f 61/61/61 60/60/60 59/59/59
f 59/59/59 68/68/68 62/62/62
f 64/64/64 63/63/63 70/70/70
f 63/63/63 62/62/62 70/70/70
f 61/61/61 59/59/59 62/62/62
f 58/58/58 67/67/67 59/59/59
f 72/72/72 81/81/81 71/71/71
f 83/83/83 80/80/80 81/81/81
f 84/84/84 79/79/79 83/83/83
f 80/80/80 83/83/83 79/79/79
f 76/76/76 84/84/84 82/82/82
f 82/82/82 83/83/83 81/81/81
f 78/78/78 79/79/79 84/84/84
f 82/82/82 81/81/81 73/73/73
f 75/75/75 73/73/73 74/74/74
f 73/73/73 76/76/76 82/82/82
f 78/78/78 84/84/84 77/77/77
f 77/77/77 84/84/84 76/76/76
f 75/75/75 76/76/76 73/73/73
f 72/72/72 73/73/73 81/81/81
