# Rhino

mtllib 7.mtl
v 37.9755744934082 88.7907562255859 -10
v 37.9755744934082 88.7907562255859 4.02610055516561E-07
v 37.9755744934082 98.301628112793 -10
v 37.9755744934082 98.301628112793 4.02610055516561E-07
v 37.9755744934082 98.301628112793 -10
v 37.9755744934082 98.301628112793 4.02610055516561E-07
v -26.4945793151855 98.301628112793 -10
v -26.4945793151855 98.301628112793 4.02610055516561E-07
v -26.4945793151855 98.301628112793 -10
v -26.4945793151855 98.301628112793 4.02610055516561E-07
v -26.4945793151855 86.5489120483398 -10
v -26.4945793151855 86.5489120483398 4.02610055516561E-07
v -26.4945793151855 86.5489120483398 -10
v -26.4945793151855 86.5489120483398 4.02610055516561E-07
v 22.2825813293457 86.5489120483398 -10
v 22.2825813293457 86.5489120483398 4.02610055516561E-07
v 22.2825813293457 86.5489120483398 -10
v 22.2825813293457 86.5489120483398 4.02610055516561E-07
v 17.6927375793457 80.9442901611328 -10
v 17.6927375793457 80.9442901611328 4.02610055516561E-07
v 13.2302732467651 74.7282638549805 -10
v 13.2302732467651 74.7282638549805 4.02610055516561E-07
v 8.89519023895264 67.9008178710938 -10
v 8.89519023895264 67.9008178710938 4.02610055516561E-07
v 4.68748807907104 60.4619560241699 -10
v 4.68748807907104 60.4619560241699 4.02610055516561E-07
v 0.81523460149765 52.6749305725098 -10
v 0.81523460149765 52.6749305725098 4.02610055516561E-07
v -2.58149385452271 44.7350540161133 -10
v -2.58149385452271 44.7350540161133 4.02610055516561E-07
v -5.50269746780396 36.6423225402832 -10
v -5.50269746780396 36.6423225402832 4.02610055516561E-07
v -7.94837617874146 28.3967380523682 -10
v -7.94837617874146 28.3967380523682 4.02610055516561E-07
v -9.89301776885986 20.3804340362549 -10
v -9.89301776885986 20.3804340362549 4.02610055516561E-07
v -11.3111696243286 12.9755439758301 -10
v -11.3111696243286 12.9755439758301 4.02610055516561E-07
v -12.2027711868286 6.18206405639648 -10
v -12.2027711868286 6.18206405639648 4.02610055516561E-07
v -12.5679445266724 -1.65856391731722E-07 -10
v -12.5679445266724 -1.65856391731722E-07 4.02610055516561E-07
v -12.5679445266724 -1.65856391731722E-07 -10
v -12.5679445266724 -1.65856391731722E-07 4.02610055516561E-07
v -1.19874202937353E-05 -1.65856391731722E-07 -10
v -1.19874202937353E-05 -1.65856391731722E-07 4.02610055516561E-07
v -1.19874202937353E-05 -1.65856391731722E-07 -10
v -1.19874202937353E-05 -1.65856391731722E-07 4.02610055516561E-07
v 0.67509788274765 7.29025268554688 -10
v 0.67509788274765 7.29025268554688 4.02610055516561E-07
v 1.68138444423676 14.2832889556885 -10
v 1.68138444423676 14.2832889556885 4.02610055516561E-07
v 3.01884794235229 20.9791107177734 -10
v 3.01884794235229 20.9791107177734 4.02610055516561E-07
v 4.68748807907104 27.3777179718018 -10
v 4.68748807907104 27.3777179718018 4.02610055516561E-07
v 7.49827909469604 36.183765411377 -10
v 7.49827909469604 36.183765411377 4.02610055516561E-07
v 10.8356199264526 44.870922088623 -10
v 10.8356199264526 44.870922088623 4.02610055516561E-07
v 14.6993894577026 53.4391975402832 -10
v 14.6993894577026 53.4391975402832 4.02610055516561E-07
v 19.0896492004395 61.8885879516602 -10
v 19.0896492004395 61.8885879516602 4.02610055516561E-07
v 23.7856941223145 69.862434387207 -10
v 23.7856941223145 69.862434387207 4.02610055516561E-07
v 28.4986457824707 77.0040740966797 -10
v 28.4986457824707 77.0040740966797 4.02610055516561E-07
v 33.2286262512207 83.3135147094727 -10
v 33.2286262512207 83.3135147094727 4.02610055516561E-07
v 37.9755744934082 88.7907562255859 -10
v 37.9755744934082 88.7907562255859 4.02610055516561E-07
v 37.9755744934082 88.7907562255859 -10
v 37.9755744934082 98.301628112793 -10
v -26.4945793151855 98.301628112793 -10
v -26.4945793151855 86.5489120483398 -10
v 22.2825813293457 86.5489120483398 -10
v 17.6927375793457 80.9442901611328 -10
v 13.2302732467651 74.7282638549805 -10
v 8.89519023895264 67.9008178710938 -10
v 4.68748807907104 60.4619560241699 -10
v 0.81523460149765 52.6749305725098 -10
v -2.58149385452271 44.7350540161133 -10
v -5.50269746780396 36.6423225402832 -10
v -7.94837617874146 28.3967380523682 -10
v -9.89301776885986 20.3804340362549 -10
v -11.3111696243286 12.9755439758301 -10
v -12.2027711868286 6.18206405639648 -10
v -12.5679445266724 -1.65856391731722E-07 -10
v -1.19874202937353E-05 -1.65856391731722E-07 -10
v 0.67509788274765 7.29025268554688 -10
v 1.68138444423676 14.2832889556885 -10
v 3.01884794235229 20.9791107177734 -10
v 4.68748807907104 27.3777179718018 -10
v 7.49827909469604 36.183765411377 -10
v 10.8356199264526 44.870922088623 -10
v 14.6993894577026 53.4391975402832 -10
v 19.0896492004395 61.8885879516602 -10
v 23.7856941223145 69.862434387207 -10
v 28.4986457824707 77.0040740966797 -10
v 33.2286262512207 83.3135147094727 -10
v 37.9755744934082 88.7907562255859 4.02610055516561E-07
v 37.9755744934082 98.301628112793 4.02610055516561E-07
v -26.4945793151855 98.301628112793 4.02610055516561E-07
v -26.4945793151855 86.5489120483398 4.02610055516561E-07
v 22.2825813293457 86.5489120483398 4.02610055516561E-07
v 17.6927375793457 80.9442901611328 4.02610055516561E-07
v 13.2302732467651 74.7282638549805 4.02610055516561E-07
v 8.89519023895264 67.9008178710938 4.02610055516561E-07
v 4.68748807907104 60.4619560241699 4.02610055516561E-07
v 0.81523460149765 52.6749305725098 4.02610055516561E-07
v -2.58149385452271 44.7350540161133 4.02610055516561E-07
v -5.50269746780396 36.6423225402832 4.02610055516561E-07
v -7.94837617874146 28.3967380523682 4.02610055516561E-07
v -9.89301776885986 20.3804340362549 4.02610055516561E-07
v -11.3111696243286 12.9755439758301 4.02610055516561E-07
v -12.2027711868286 6.18206405639648 4.02610055516561E-07
v -12.5679445266724 -1.65856391731722E-07 4.02610055516561E-07
v -1.19874202937353E-05 -1.65856391731722E-07 4.02610055516561E-07
v 0.67509788274765 7.29025268554688 4.02610055516561E-07
v 1.68138444423676 14.2832889556885 4.02610055516561E-07
v 3.01884794235229 20.9791107177734 4.02610055516561E-07
v 4.68748807907104 27.3777179718018 4.02610055516561E-07
v 7.49827909469604 36.183765411377 4.02610055516561E-07
v 10.8356199264526 44.870922088623 4.02610055516561E-07
v 14.6993894577026 53.4391975402832 4.02610055516561E-07
v 19.0896492004395 61.8885879516602 4.02610055516561E-07
v 23.7856941223145 69.862434387207 4.02610055516561E-07
v 28.4986457824707 77.0040740966797 4.02610055516561E-07
v 33.2286262512207 83.3135147094727 4.02610055516561E-07
vt 0 0
vt 0 0.535986423492432
vt 0.0672094598412514 0
vt 0.0672094598412514 0.535986423492432
vt 0.0672094598412514 0
vt 0.0672094598412514 0.535986423492432
vt 0.522793591022491 0
vt 0.522793591022491 0.535986423492432
vt 0.522793591022491 0
vt 0.522793591022491 0.535986423492432
vt 0.605845332145691 0
vt 0.605845332145691 0.535986423492432
vt 0.605845332145691 0
vt 0.605845332145691 0.535986423492432
vt 0.950533807277679 0
vt 0.950533807277679 0.535986423492432
vt 0.950533807277679 0
vt 0.950533807277679 0.535986423492432
vt 0.952300488948822 0
vt 0.952300488948822 0.535986423492432
vt 0.95406711101532 0
vt 0.95406711101532 0.535986423492432
vt 0.955833792686462 0
vt 0.955833792686462 0.535986423492432
vt 0.95760041475296 0
vt 0.95760041475296 0.535986423492432
vt 0.959367096424103 0
vt 0.959367096424103 0.535986423492432
vt 0.961133718490601 0
vt 0.961133718490601 0.535986423492432
vt 0.962900400161743 0
vt 0.962900400161743 0.535986423492432
vt 0.964667022228241 0
vt 0.964667022228241 0.535986423492432
vt 0.966433644294739 0
vt 0.966433644294739 0.535986423492432
vt 0.968200325965881 0
vt 0.968200325965881 0.535986423492432
vt 0.969966948032379 0
vt 0.969966948032379 0.535986423492432
vt 0.971733629703522 0
vt 0.971733629703522 0.535986423492432
vt 0.971733629703522 0
vt 0.971733629703522 0.535986423492432
vt 0.978800237178802 0
vt 0.978800237178802 0.535986423492432
vt 0.978800237178802 0
vt 0.978800237178802 0.535986423492432
vt 0.9805668592453 0
vt 0.9805668592453 0.535986423492432
vt 0.982333540916443 0
vt 0.982333540916443 0.535986423492432
vt 0.984100162982941 0
vt 0.984100162982941 0.535986423492432
vt 0.985866785049438 0
vt 0.985866785049438 0.535986423492432
vt 0.987633466720581 0
vt 0.987633466720581 0.535986423492432
vt 0.989400088787079 0
vt 0.989400088787079 0.535986423492432
vt 0.991166770458221 0
vt 0.991166770458221 0.535986423492432
vt 0.992933392524719 0
vt 0.992933392524719 0.535986423492432
vt 0.994700074195862 0
vt 0.994700074195862 0.535986423492432
vt 0.99646669626236 0
vt 0.99646669626236 0.535986423492432
vt 0.998233377933502 0
vt 0.998233377933502 0.535986423492432
vt 1 0
vt 1 0.535986423492432
vt 0.027954975143075 0.535986959934235
vt 0 0.535986959934235
vt 0 1
vt 0.034544363617897 1
vt 0.034544363617897 0.648934304714203
vt 0.0510178320109844 0.681968927383423
vt 0.0692884027957916 0.714086771011353
vt 0.0893560796976089 0.745287895202637
vt 0.111220866441727 0.775572180747986
vt 0.134109005331993 0.803442299365997
vt 0.157446414232254 0.827889800071716
vt 0.181233108043671 0.848914623260498
vt 0.205469071865082 0.866516768932343
vt 0.22903111577034 0.880512952804565
vt 0.25079607963562 0.890719771385193
vt 0.270763903856277 0.897137224674225
vt 0.288934648036957 0.899765372276306
vt 0.288934648036957 0.809309720993042
vt 0.267506659030914 0.804450750350952
vt 0.246952265501022 0.797208189964294
vt 0.22727145254612 0.787582039833069
vt 0.208464249968529 0.775572180747986
vt 0.182580932974815 0.75534188747406
vt 0.157047063112259 0.731322288513184
vt 0.131862625479698 0.703513264656067
vt 0.107027620077133 0.671914875507355
vt 0.0835903659462929 0.638116300106049
vt 0.0625991746783257 0.604195415973663
vt 0.0440540462732315 0.570152282714844
vt 0.027954975143075 1
vt 0 1
vt 0 0.535986959934235
vt 0.034544363617897 0.535986959934235
vt 0.034544363617897 0.887052655220032
vt 0.0510178320109844 0.854018032550812
vt 0.0692884027957916 0.821900129318237
vt 0.0893560796976089 0.790699064731598
vt 0.111220866441727 0.760414779186249
vt 0.134109005331993 0.732544660568237
vt 0.157446414232254 0.708097159862518
vt 0.181233108043671 0.687072336673737
vt 0.205469071865082 0.669470131397247
vt 0.22903111577034 0.655473947525024
vt 0.25079607963562 0.645267128944397
vt 0.270763903856277 0.638849675655365
vt 0.288934648036957 0.636221587657928
vt 0.288934648036957 0.726677238941193
vt 0.267506659030914 0.731536149978638
vt 0.246952265501022 0.73877876996994
vt 0.22727145254612 0.748404920101166
vt 0.208464249968529 0.760414779186249
vt 0.182580932974815 0.78064501285553
vt 0.157047063112259 0.804664671421051
vt 0.131862625479698 0.832473695278168
vt 0.107027620077133 0.864072024822235
vt 0.0835903659462929 0.897870659828186
vt 0.0625991746783257 0.931791543960571
vt 0.0440540462732315 0.965834677219391
vn 1 0 0
vn 1 0 0
vn 1 0 0
vn 1 0 0
vn 0 1 0
vn 0 1 0
vn 0 1 0
vn 0 1 0
vn -1 0 0
vn -1 0 0
vn -1 0 0
vn -1 0 0
vn 0 -1 0
vn 0 -1 0
vn 0 -1 0
vn 0 -1 0
vn -0.751381993293762 0.659867525100708 0
vn -0.751381993293762 0.659867525100708 0
vn -0.793936729431152 0.60800039768219 0
vn -0.793936729431152 0.60800039768219 0
vn -0.829048871994019 0.559176206588745 0
vn -0.829048871994019 0.559176206588745 0
vn -0.857943177223206 0.513744533061981 0
vn -0.857943177223206 0.513744533061981 0
vn -0.882460534572601 0.470386445522308 0
vn -0.882460534572601 0.470386445522308 0
vn -0.907729744911194 0.419555425643921 0
vn -0.907729744911194 0.419555425643921 0
vn -0.930367648601532 0.366627931594849 0
vn -0.930367648601532 0.366627931594849 0
vn -0.950056850910187 0.312076896429062 0
vn -0.950056850910187 0.312076896429062 0
vn -0.966561555862427 0.256434708833694 0
vn -0.966561555862427 0.256434708833694 0
vn -0.977040231227875 0.213055029511452 0
vn -0.977040231227875 0.213055029511452 0
vn -0.987024664878845 0.160568609833717 0
vn -0.987024664878845 0.160568609833717 0
vn -0.995341956615448 0.0964074656367302 0
vn -0.995341956615448 0.0964074656367302 0
vn -0.999849677085876 0.0173384342342615 0
vn -0.999849677085876 0.0173384342342615 0
vn 0 -1 0
vn 0 -1 0
vn 0 -1 0
vn 0 -1 0
vn 0.997662544250488 -0.0683330520987511 0
vn 0.997662544250488 -0.0683330520987511 0
vn 0.993142545223236 -0.116909764707088 0
vn 0.993142545223236 -0.116909764707088 0
vn 0.985657155513763 -0.168760150671005 0
vn 0.985657155513763 -0.168760150671005 0
vn 0.974646210670471 -0.223751470446587 0
vn 0.974646210670471 -0.223751470446587 0
vn 0.961105942726135 -0.276179879903793 0
vn 0.961105942726135 -0.276179879903793 0
vn 0.943429172039032 -0.331574141979218 0
vn 0.943429172039032 -0.331574141979218 0
vn 0.922861814498901 -0.385131299495697 0
vn 0.922861814498901 -0.385131299495697 0
vn 0.899749994277954 -0.436405688524246 0
vn 0.899749994277954 -0.436405688524246 0
vn 0.872987747192383 -0.487742155790329 0
vn 0.872987747192383 -0.487742155790329 0
vn 0.848961532115936 -0.528454661369324 0
vn 0.848961532115936 -0.528454661369324 0
vn 0.818454384803772 -0.574571490287781 0
vn 0.818454384803772 -0.574571490287781 0
vn 0.779332637786865 -0.626610398292542 0
vn 0.779332637786865 -0.626610398292542 0
vn 0.728774130344391 -0.684754192829132 0
vn 0.728774130344391 -0.684754192829132 0
vn 0 0 -1
vn 0 0 -1
vn 0 0 -1
vn 0 0 -1
vn 0 0 -1
vn 0 0 -1
vn 0 0 -1
vn 0 0 -1
vn 0 0 -1
vn 0 0 -1
vn 0 0 -1
vn 0 0 -1
vn 0 0 -1
vn 0 0 -1
vn 0 0 -1
vn 0 0 -1
vn 0 0 -1
vn 0 0 -1
vn 0 0 -1
vn 0 0 -1
vn 0 0 -1
vn 0 0 -1
vn 0 0 -1
vn 0 0 -1
vn 0 0 -1
vn 0 0 -1
vn 0 0 -1
vn 0 0 -1
vn 0 0 -1
vn 0 0 1
vn 0 0 1
vn 0 0 1
vn 0 0 1
vn 0 0 1
vn 0 0 1
vn 0 0 1
vn 0 0 1
vn 0 0 1
vn 0 0 1
vn 0 0 1
vn 0 0 1
vn 0 0 1
vn 0 0 1
vn 0 0 1
vn 0 0 1
vn 0 0 1
vn 0 0 1
vn 0 0 1
vn 0 0 1
vn 0 0 1
vn 0 0 1
vn 0 0 1
vn 0 0 1
vn 0 0 1
vn 0 0 1
vn 0 0 1
vn 0 0 1
vn 0 0 1
f 88/88/88 87/87/87 86/86/86 85/85/85 84/84/84 83/83/83 82/82/82 \
81/81/81 80/80/80 79/79/79 78/78/78 77/77/77 76/76/76 75/75/75 \
74/74/74 73/73/73 101/101/101 100/100/100 99/99/99 98/98/98 97/97/97 \
96/96/96 95/95/95 94/94/94 93/93/93 92/92/92 91/91/91 90/90/90 \
89/89/89
f 116/116/116 117/117/117 118/118/118 119/119/119 120/120/120 \
121/121/121 122/122/122 123/123/123 124/124/124 125/125/125 126/126/126 \
127/127/127 128/128/128 129/129/129 130/130/130 102/102/102 103/103/103 \
104/104/104 105/105/105 106/106/106 107/107/107 108/108/108 109/109/109 \
110/110/110 111/111/111 112/112/112 113/113/113 114/114/114 115/115/115
f 1/1/1 3/3/3 4/4/4 2/2/2
f 5/5/5 7/7/7 8/8/8 6/6/6
f 9/9/9 11/11/11 12/12/12 10/10/10
f 13/13/13 15/15/15 16/16/16 14/14/14
f 17/17/17 19/19/19 20/20/20 18/18/18
f 19/19/19 21/21/21 22/22/22 20/20/20
f 21/21/21 23/23/23 24/24/24 22/22/22
f 23/23/23 25/25/25 26/26/26 24/24/24
f 25/25/25 27/27/27 28/28/28 26/26/26
f 27/27/27 29/29/29 30/30/30 28/28/28
f 29/29/29 31/31/31 32/32/32 30/30/30
f 31/31/31 33/33/33 34/34/34 32/32/32
f 33/33/33 35/35/35 36/36/36 34/34/34
f 35/35/35 37/37/37 38/38/38 36/36/36
f 37/37/37 39/39/39 40/40/40 38/38/38
f 39/39/39 41/41/41 42/42/42 40/40/40
f 43/43/43 45/45/45 46/46/46 44/44/44
f 47/47/47 49/49/49 50/50/50 48/48/48
f 49/49/49 51/51/51 52/52/52 50/50/50
f 51/51/51 53/53/53 54/54/54 52/52/52
f 53/53/53 55/55/55 56/56/56 54/54/54
f 55/55/55 57/57/57 58/58/58 56/56/56
f 57/57/57 59/59/59 60/60/60 58/58/58
f 59/59/59 61/61/61 62/62/62 60/60/60
f 61/61/61 63/63/63 64/64/64 62/62/62
f 63/63/63 65/65/65 66/66/66 64/64/64
f 65/65/65 67/67/67 68/68/68 66/66/66
f 67/67/67 69/69/69 70/70/70 68/68/68
f 69/69/69 71/71/71 72/72/72 70/70/70
