# Rhino

mtllib 1.mtl
usemtl diffuse_Black
v 2.1891891956329346 0 5.125
v 2.9996428489685059 0 4.8837399482727051
v 3.5768773555755615 0 4.2068986892700195
v 3.8612258434295654 0 3.3784084320068359
v 3.9391891956329346 0 2.5
v 3.8589103221893311 0 1.6078482866287231
v 3.5713193416595459 0 0.78070980310440063
v 3.017188549041748 0 0.12784393131732941
v 2.1891891956329346 0 -0.125
v 1.3808720111846924 0 0.1163121685385704
v 0.80275624990463257 0 0.7931397557258606
v 0.51748698949813843 0 1.621284008026123
v 0.43918919563293457 0 2.5
v 0.51999521255493164 0 3.3914687633514404
v 0.80874526500701904 0 4.2179813385009766
v 1.3634382486343384 0 4.871579647064209
v 2.1875 0 4.625
v 1.6045186519622803 0 4.3828573226928711
v 1.2970600128173828 0 3.8027911186218262
v 1.1782582998275757 0 3.1569445133209229
v 1.1486486196517944 0 2.5
v 1.1813879013061523 0 1.812490701675415
v 1.3048310279846191 0 1.1715854406356812
v 1.614737868309021 0 0.60666561126708984
v 2.1875 0 0.375
v 2.7728307247161865 0 0.61761444807052612
v 3.0808620452880859 0 1.1972973346710205
v 3.2000246047973633 0 1.8430628776550293
v 3.2297296524047852 0 2.5
v 3.1968727111816406 0 3.1876156330108643
v 3.0730273723602295 0 3.8284537792205811
v 2.76242995262146 0 4.3930273056030273
v 2.1891891956329346 1.5 5.125
v 2.9996428489685059 1.5 4.8837399482727051
v 3.5768773555755615 1.5 4.2068986892700195
v 3.8612258434295654 1.5 3.3784084320068359
v 3.9391891956329346 1.5 2.5
v 3.8589103221893311 1.5 1.6078482866287231
v 3.5713193416595459 1.5 0.78070980310440063
v 3.017188549041748 1.5 0.12784393131732941
v 2.1891891956329346 1.5 -0.125
v 1.3808720111846924 1.5 0.1163121685385704
v 0.80275624990463257 1.5 0.7931397557258606
v 0.51748698949813843 1.5 1.621284008026123
v 0.43918919563293457 1.5 2.5
v 0.51999521255493164 1.5 3.3914687633514404
v 0.80874526500701904 1.5 4.2179813385009766
v 1.3634382486343384 1.5 4.871579647064209
v 2.1875 1.5 4.625
v 1.6045186519622803 1.5 4.3828573226928711
v 1.2970600128173828 1.5 3.8027911186218262
v 1.1782582998275757 1.5 3.1569445133209229
v 1.1486486196517944 1.5 2.5
v 1.1813879013061523 1.5 1.812490701675415
v 1.3048310279846191 1.5 1.1715854406356812
v 1.614737868309021 1.5 0.60666561126708984
v 2.1875 1.5 0.375
v 2.7728307247161865 1.5 0.61761444807052612
v 3.0808620452880859 1.5 1.1972973346710205
v 3.2000246047973633 1.5 1.8430628776550293
v 3.2297296524047852 1.5 2.5
v 3.1968727111816406 1.5 3.1876156330108643
v 3.0730273723602295 1.5 3.8284537792205811
v 2.76242995262146 1.5 4.3930273056030273
v 2.1891891956329346 0 5.125
v 2.1891891956329346 1.5 5.125
v 2.9996428489685059 0 4.8837399482727051
v 2.9996428489685059 1.5 4.8837399482727051
v 3.5768773555755615 0 4.2068986892700195
v 3.5768773555755615 1.5 4.2068986892700195
v 3.8612258434295654 0 3.3784084320068359
v 3.8612258434295654 1.5 3.3784084320068359
v 3.9391891956329346 0 2.5
v 3.9391891956329346 1.5 2.5
v 3.8589103221893311 0 1.6078482866287231
v 3.8589103221893311 1.5 1.6078482866287231
v 3.5713193416595459 0 0.78070980310440063
v 3.5713193416595459 1.5 0.78070980310440063
v 3.017188549041748 0 0.12784393131732941
v 3.017188549041748 1.5 0.12784393131732941
v 2.1891891956329346 0 -0.125
v 2.1891891956329346 1.5 -0.125
v 1.3808720111846924 0 0.1163121685385704
v 1.3808720111846924 1.5 0.1163121685385704
v 0.80275624990463257 0 0.7931397557258606
v 0.80275624990463257 1.5 0.7931397557258606
v 0.51748698949813843 0 1.621284008026123
v 0.51748698949813843 1.5 1.621284008026123
v 0.43918919563293457 0 2.5
v 0.43918919563293457 1.5 2.5
v 0.51999521255493164 0 3.3914687633514404
v 0.51999521255493164 1.5 3.3914687633514404
v 0.80874526500701904 0 4.2179813385009766
v 0.80874526500701904 1.5 4.2179813385009766
v 1.3634382486343384 0 4.871579647064209
v 1.3634382486343384 1.5 4.871579647064209
v 2.1891891956329346 0 5.125
v 2.1891891956329346 1.5 5.125
v 2.1875 0 4.625
v 2.1875 1.5 4.625
v 2.76242995262146 0 4.3930273056030273
v 2.76242995262146 1.5 4.3930273056030273
v 3.0730273723602295 0 3.8284537792205811
v 3.0730273723602295 1.5 3.8284537792205811
v 3.1968727111816406 0 3.1876156330108643
v 3.1968727111816406 1.5 3.1876156330108643
v 3.2297296524047852 0 2.5
v 3.2297296524047852 1.5 2.5
v 3.2000246047973633 0 1.8430628776550293
v 3.2000246047973633 1.5 1.8430628776550293
v 3.0808620452880859 0 1.1972973346710205
v 3.0808620452880859 1.5 1.1972973346710205
v 2.7728307247161865 0 0.61761444807052612
v 2.7728307247161865 1.5 0.61761444807052612
v 2.1875 0 0.375
v 2.1875 1.5 0.375
v 1.614737868309021 0 0.60666561126708984
v 1.614737868309021 1.5 0.60666561126708984
v 1.3048310279846191 0 1.1715854406356812
v 1.3048310279846191 1.5 1.1715854406356812
v 1.1813879013061523 0 1.812490701675415
v 1.1813879013061523 1.5 1.812490701675415
v 1.1486486196517944 0 2.5
v 1.1486486196517944 1.5 2.5
v 1.1782582998275757 0 3.1569445133209229
v 1.1782582998275757 1.5 3.1569445133209229
v 1.2970600128173828 0 3.8027911186218262
v 1.2970600128173828 1.5 3.8027911186218262
v 1.6045186519622803 0 4.3828573226928711
v 1.6045186519622803 1.5 4.3828573226928711
v 2.1875 0 4.625
v 2.1875 1.5 4.625
vt 0.48327887058258057 0.540008544921875
vt 0.46613872051239014 0.59758663177490234
vt 0.41805300116539001 0.63859587907791138
vt 0.35919350385665894 0.65879720449447632
vt 0.29678758978843689 0.66433602571487427
vt 0.23340529203414917 0.65863269567489624
vt 0.17464178800582886 0.63820099830627441
vt 0.12825940549373627 0.59883320331573486
vt 0.11029629409313202 0.540008544921875
vt 0.12744013965129852 0.48258218169212341
vt 0.17552489042282104 0.44151034951210022
vt 0.23435981571674347 0.42124360799789429
vt 0.29678758978843689 0.41568100452423096
vt 0.36012136936187744 0.42142179608345032
vt 0.41884034872055054 0.44193583726882935
vt 0.46527478098869324 0.48134362697601318
vt 0.44775670766830444 0.53988850116729736
vt 0.4305538535118103 0.49847102165222168
vt 0.38934347033500671 0.47662782669067383
vt 0.34345975518226624 0.46818765997886658
vt 0.29678758978843689 0.4660840630531311
vt 0.24794395267963409 0.46840998530387878
vt 0.20241129398345947 0.47717991471290588
vt 0.16227695345878601 0.49919703602790833
vt 0.14581844210624695 0.53988850116729736
vt 0.16305480897426605 0.58147293329238892
vt 0.20423796772956848 0.60335677862167358
vt 0.25011593103408813 0.61182260513305664
vt 0.29678758978843689 0.6139330267906189
vt 0.34563875198364258 0.6115986704826355
vt 0.39116665720939636 0.60280019044876099
vt 0.43127638101577759 0.5807340145111084
vt 0.48327887058258057 0.12681408226490021
vt 0.46613872051239014 0.18439219892024994
vt 0.41805300116539001 0.22540141642093658
vt 0.35919350385665894 0.24560274183750153
vt 0.29678758978843689 0.25114160776138306
vt 0.23340529203414917 0.24543826282024384
vt 0.17464178800582886 0.22500655055046082
vt 0.12825940549373627 0.18563872575759888
vt 0.11029629409313202 0.12681408226490021
vt 0.12744013965129852 0.069387748837471008
vt 0.17552489042282104 0.028315918520092964
vt 0.23435981571674347 0.0080491648986935616
vt 0.29678758978843689 0.0024865507148206234
vt 0.36012136936187744 0.0082273576408624649
vt 0.41884034872055054 0.028741402551531792
vt 0.46527478098869324 0.068149186670780182
vt 0.44775670766830444 0.12669406831264496
vt 0.4305538535118103 0.085276566445827484
vt 0.38934347033500671 0.063433378934860229
vt 0.34345975518226624 0.054993204772472382
vt 0.29678758978843689 0.052889604121446609
vt 0.24794395267963409 0.055215544998645782
vt 0.20241129398345947 0.063985466957092285
vt 0.16227695345878601 0.086002588272094727
vt 0.14581844210624695 0.12669406831264496
vt 0.16305480897426605 0.16827850043773651
vt 0.20423796772956848 0.19016236066818237
vt 0.25011593103408813 0.19862817227840424
vt 0.29678758978843689 0.2007385641336441
vt 0.34563875198364258 0.19840425252914429
vt 0.39116665720939636 0.18960574269294739
vt 0.43127638101577759 0.1675395667552948
vt 0.10510160773992538 0
vt 0 0
vt 0.10510160773992538 0.072187662124633789
vt 0 0.072187662124633789
vt 0.10510160773992538 0.14116212725639343
vt 0 0.14116212725639343
vt 0.10510160773992538 0.19931612908840179
vt 0 0.19931612908840179
vt 0.10510160773992538 0.2496337890625
vt 0 0.2496337890625
vt 0.10510160773992538 0.30069315433502197
vt 0 0.30069315433502197
vt 0.10510160773992538 0.35893428325653076
vt 0 0.35893428325653076
vt 0.10510160773992538 0.42528054118156433
vt 0 0.42528054118156433
vt 0.10510160773992538 0.499267578125
vt 0 0.499267578125
vt 0.10510160773992538 0.57146304845809937
vt 0 0.57146304845809937
vt 0.10510160773992538 0.64043277502059937
vt 0 0.64043277502059937
vt 0.10510160773992538 0.69856446981430054
vt 0 0.69856446981430054
vt 0.10510160773992538 0.7489013671875
vt 0 0.7489013671875
vt 0.10510160773992538 0.80003815889358521
vt 0 0.80003815889358521
vt 0.10510160773992538 0.85825967788696289
vt 0 0.85825967788696289
vt 0.10510160773992538 0.92455059289932251
vt 0 0.92455059289932251
vt 0.10510160773992538 0.99853515625
vt 0 0.99853515625
vt 0.10656645148992538 0.8263888955116272
vt 0.10656645148992538 0.93295532464981079
vt 0.16817143559455872 0.8263888955116272
vt 0.16817143559455872 0.93295532464981079
vt 0.22072358429431915 0.8263888955116272
vt 0.22072358429431915 0.93295532464981079
vt 0.25991654396057129 0.8263888955116272
vt 0.25991654396057129 0.93295532464981079
vt 0.29302272200584412 0.8263888955116272
vt 0.29302272200584412 0.93295532464981079
vt 0.32450106739997864 0.8263888955116272
vt 0.32450106739997864 0.93295532464981079
vt 0.36349129676818848 0.8263888955116272
vt 0.36349129676818848 0.93295532464981079
vt 0.41647675633430481 0.8263888955116272
vt 0.41647675633430481 0.93295532464981079
vt 0.47947898507118225 0.8263888955116272
vt 0.47947898507118225 0.93295532464981079
vt 0.54104322195053101 0.8263888955116272
vt 0.54104322195053101 0.93295532464981079
vt 0.59363889694213867 0.8263888955116272
vt 0.59363889694213867 0.93295532464981079
vt 0.63283473253250122 0.8263888955116272
vt 0.63283473253250122 0.93295532464981079
vt 0.66593527793884277 0.8263888955116272
vt 0.66593527793884277 0.93295532464981079
vt 0.69741398096084595 0.8263888955116272
vt 0.69741398096084595 0.93295532464981079
vt 0.73641008138656616 0.8263888955116272
vt 0.73641008138656616 0.93295532464981079
vt 0.78945058584213257 0.8263888955116272
vt 0.78945058584213257 0.93295532464981079
vt 0.85239154100418091 0.8263888955116272
vt 0.85239154100418091 0.93295532464981079
vn 0 -1 0
vn 0 -1 0
vn 0 -1 0
vn 0 -1 0
vn 0 -1 0
vn 0 -1 0
vn 0 -1 0
vn 0 -1 0
vn 0 -1 0
vn 0 -1 0
vn 0 -1 0
vn 0 -1 0
vn 0 -1 0
vn 0 -1 0
vn 0 -1 0
vn 0 -1 0
vn 0 -1 0
vn 0 -1 0
vn 0 -1 0
vn 0 -1 0
vn 0 -1 0
vn 0 -1 0
vn 0 -1 0
vn 0 -1 0
vn 0 -1 0
vn 0 -1 0
vn 0 -1 0
vn 0 -1 0
vn 0 -1 0
vn 0 -1 0
vn 0 -1 0
vn 0 -1 0
vn 0 1 0
vn 0 1 0
vn 0 1 0
vn 0 1 0
vn 0 1 0
vn 0 1 0
vn 0 1 0
vn 0 1 0
vn 0 1 0
vn 0 1 0
vn 0 1 0
vn 0 1 0
vn 0 1 0
vn 0 1 0
vn 0 1 0
vn 0 1 0
vn 0 1 0
vn 0 1 0
vn 0 1 0
vn 0 1 0
vn 0 1 0
vn 0 1 0
vn 0 1 0
vn 0 1 0
vn 0 1 0
vn 0 1 0
vn 0 1 0
vn 0 1 0
vn 0 1 0
vn 0 1 0
vn 0 1 0
vn 0 1 0
vn 0 0 1
vn 0 0 1
vn 0.5639919638633728 0 0.82578027248382568
vn 0.5639919638633728 0 0.82578027248382568
vn 0.88234585523605347 0 0.47060155868530273
vn 0.88234585523605347 0 0.47060155868530273
vn 0.98168456554412842 0 0.19051353633403778
vn 0.98168456554412842 0 0.19051353633403778
vn 1 0 0
vn 1 0 0
vn 0.98110306262969971 0 -0.19348587095737457
vn 0.98110306262969971 0 -0.19348587095737457
vn 0.87980359792709351 0 -0.47533738613128662
vn 0.87980359792709351 0 -0.47533738613128662
vn 0.57539659738540649 0 -0.81787455081939697
vn 0.57539659738540649 0 -0.81787455081939697
vn 0 0 -1
vn 0 0 -1
vn -0.56432747840881348 0 -0.82555103302001953
vn -0.56432747840881348 0 -0.82555103302001953
vn -0.88166576623916626 0 -0.47187447547912598
vn -0.88166576623916626 0 -0.47187447547912598
vn -0.98154264688491821 0 -0.19124351441860199
vn -0.98154264688491821 0 -0.19124351441860199
vn -1 0 0
vn -1 0 0
vn -0.9808579683303833 0 0.19472452998161316
vn -0.9808579683303833 0 0.19472452998161316
vn -0.87921452522277832 0 0.47642603516578674
vn -0.87921452522277832 0 0.47642603516578674
vn -0.57652020454406738 0 0.81708288192749023
vn -0.57652020454406738 0 0.81708288192749023
vn 0 0 1
vn 0 0 1
vn 0 0 -1
vn 0 0 -1
vn -0.70923501253128052 0 -0.70497208833694458
vn -0.70923501253128052 0 -0.70497208833694458
vn -0.95498871803283691 0 -0.29664218425750732
vn -0.95498871803283691 0 -0.29664218425750732
vn -0.99444103240966797 0 -0.10529525578022003
vn -0.99444103240966797 0 -0.10529525578022003
vn -1 0 0
vn -1 0 0
vn -0.9950745701789856 0 0.099129311740398407
vn -0.9950745701789856 0 0.099129311740398407
vn -0.95835727453231812 0 0.28557184338569641
vn -0.95835727453231812 0 0.28557184338569641
vn -0.72100257873535156 0 0.6929323673248291
vn -0.72100257873535156 0 0.6929323673248291
vn 0 0 1
vn 0 0 1
vn 0.71003055572509766 0 0.704170823097229
vn 0.71003055572509766 0 0.704170823097229
vn 0.95526605844497681 0 0.29574772715568542
vn 0.95526605844497681 0 0.29574772715568542
vn 0.99447894096374512 0 0.10493611544370651
vn 0.99447894096374512 0 0.10493611544370651
vn 1 0 0
vn 1 0 0
vn 0.995106041431427 0 -0.098812602460384369
vn 0.995106041431427 0 -0.098812602460384369
vn 0.9585992693901062 0 -0.28475856781005859
vn 0.9585992693901062 0 -0.28475856781005859
vn 0.72161775827407837 0 -0.6922917366027832
vn 0.72161775827407837 0 -0.6922917366027832
vn 0 0 -1
vn 0 0 -1
f 20/20/20 15/15/15 14/14/14
f 21/21/21 20/20/20 13/13/13
f 14/14/14 13/13/13 20/20/20
f 20/20/20 19/19/19 15/15/15
f 17/17/17 1/1/1 18/18/18
f 16/16/16 18/18/18 1/1/1
f 16/16/16 19/19/19 18/18/18
f 15/15/15 19/19/19 16/16/16
f 12/12/12 22/22/22 21/21/21
f 22/22/22 12/12/12 11/11/11
f 11/11/11 23/23/23 22/22/22
f 13/13/13 12/12/12 21/21/21
f 10/10/10 24/24/24 23/23/23
f 25/25/25 24/24/24 9/9/9
f 10/10/10 9/9/9 24/24/24
f 11/11/11 10/10/10 23/23/23
f 32/32/32 2/2/2 1/1/1
f 2/2/2 32/32/32 31/31/31
f 31/31/31 3/3/3 2/2/2
f 30/30/30 4/4/4 3/3/3
f 4/4/4 30/30/30 29/29/29
f 29/29/29 5/5/5 4/4/4
f 31/31/31 30/30/30 3/3/3
f 8/8/8 27/27/27 26/26/26
f 26/26/26 9/9/9 8/8/8
f 8/8/8 7/7/7 27/27/27
f 26/26/26 25/25/25 9/9/9
f 6/6/6 5/5/5 28/28/28
f 29/29/29 28/28/28 5/5/5
f 28/28/28 7/7/7 6/6/6
f 27/27/27 7/7/7 28/28/28
f 1/1/1 17/17/17 32/32/32
f 52/52/52 46/46/46 47/47/47
f 53/53/53 45/45/45 52/52/52
f 46/46/46 52/52/52 45/45/45
f 52/52/52 47/47/47 51/51/51
f 49/49/49 50/50/50 33/33/33
f 48/48/48 33/33/33 50/50/50
f 48/48/48 50/50/50 51/51/51
f 47/47/47 48/48/48 51/51/51
f 44/44/44 53/53/53 54/54/54
f 54/54/54 43/43/43 44/44/44
f 43/43/43 54/54/54 55/55/55
f 45/45/45 53/53/53 44/44/44
f 42/42/42 55/55/55 56/56/56
f 57/57/57 41/41/41 56/56/56
f 42/42/42 56/56/56 41/41/41
f 43/43/43 55/55/55 42/42/42
f 64/64/64 33/33/33 34/34/34
f 34/34/34 63/63/63 64/64/64
f 63/63/63 34/34/34 35/35/35
f 62/62/62 35/35/35 36/36/36
f 36/36/36 61/61/61 62/62/62
f 61/61/61 36/36/36 37/37/37
f 63/63/63 35/35/35 62/62/62
f 40/40/40 58/58/58 59/59/59
f 58/58/58 40/40/40 41/41/41
f 40/40/40 59/59/59 39/39/39
f 58/58/58 41/41/41 57/57/57
f 38/38/38 60/60/60 37/37/37
f 61/61/61 37/37/37 60/60/60
f 60/60/60 38/38/38 39/39/39
f 59/59/59 60/60/60 39/39/39
f 33/33/33 64/64/64 49/49/49
f 67/67/67 68/68/68 66/66/66 65/65/65
f 71/71/71 72/72/72 70/70/70 69/69/69
f 69/69/69 70/70/70 68/68/68 67/67/67
f 75/75/75 76/76/76 74/74/74 73/73/73
f 79/79/79 80/80/80 78/78/78 77/77/77
f 77/77/77 78/78/78 76/76/76 75/75/75
f 73/73/73 74/74/74 72/72/72 71/71/71
f 81/81/81 82/82/82 80/80/80 79/79/79
f 85/85/85 86/86/86 84/84/84 83/83/83
f 89/89/89 90/90/90 88/88/88 87/87/87
f 87/87/87 88/88/88 86/86/86 85/85/85
f 93/93/93 94/94/94 92/92/92 91/91/91
f 97/97/97 98/98/98 96/96/96 95/95/95
f 95/95/95 96/96/96 94/94/94 93/93/93
f 91/91/91 92/92/92 90/90/90 89/89/89
f 83/83/83 84/84/84 82/82/82 81/81/81
f 101/101/101 99/99/99 100/100/100 102/102/102
f 105/105/105 103/103/103 104/104/104 106/106/106
f 103/103/103 101/101/101 102/102/102 104/104/104
f 109/109/109 107/107/107 108/108/108 110/110/110
f 113/113/113 111/111/111 112/112/112 114/114/114
f 111/111/111 109/109/109 110/110/110 112/112/112
f 107/107/107 105/105/105 106/106/106 108/108/108
f 115/115/115 113/113/113 114/114/114 116/116/116
f 119/119/119 117/117/117 118/118/118 120/120/120
f 123/123/123 121/121/121 122/122/122 124/124/124
f 121/121/121 119/119/119 120/120/120 122/122/122
f 127/127/127 125/125/125 126/126/126 128/128/128
f 131/131/131 129/129/129 130/130/130 132/132/132
f 129/129/129 127/127/127 128/128/128 130/130/130
f 125/125/125 123/123/123 124/124/124 126/126/126
f 117/117/117 115/115/115 116/116/116 118/118/118
