# Rhino

mtllib 1-.mtl
usemtl diffuse_Black
v 1.8108108043670654 0 5
v 2.476351261138916 0 5
v 2.476351261138916 0 -0.043918918818235397
v 1.0168918371200562 0 0.081081077456474304
v 1.0168918371200562 0 0.5
v 1.8108108043670654 0 0.5
v 1.8108108043670654 1.5 5
v 2.476351261138916 1.5 5
v 2.476351261138916 1.5 -0.043918918818235397
v 1.0168918371200562 1.5 0.081081077456474304
v 1.0168918371200562 1.5 0.5
v 1.8108108043670654 1.5 0.5
v 1.8108108043670654 0 5
v 1.8108108043670654 1.5 5
v 2.476351261138916 0 5
v 2.476351261138916 1.5 5
v 2.476351261138916 0 5
v 2.476351261138916 1.5 5
v 2.476351261138916 0 -0.043918918818235397
v 2.476351261138916 1.5 -0.043918918818235397
v 2.476351261138916 0 -0.043918918818235397
v 2.476351261138916 1.5 -0.043918918818235397
v 1.0168918371200562 0 0.081081077456474304
v 1.0168918371200562 1.5 0.081081077456474304
v 1.0168918371200562 0 0.081081077456474304
v 1.0168918371200562 1.5 0.081081077456474304
v 1.0168918371200562 0 0.5
v 1.0168918371200562 1.5 0.5
v 1.0168918371200562 0 0.5
v 1.0168918371200562 1.5 0.5
v 1.8108108043670654 0 0.5
v 1.8108108043670654 1.5 0.5
v 1.8108108043670654 0 0.5
v 1.8108108043670654 1.5 0.5
v 1.8108108043670654 0 5
v 1.8108108043670654 1.5 5
vt 0.89840435981750488 0.0074753849767148495
vt 0.99638652801513672 0.0074753849767148495
vt 0.99638652801513672 0.75501382350921631
vt 0.78152215480804443 0.73648816347122192
vt 0.78152215480804443 0.67440187931060791
vt 0.89840435981750488 0.67440187931060791
vt 0.75501388311386108 0.11903087049722672
vt 0.75501388311386108 0.21701300144195557
vt 0.0074754073284566402 0.21701300144195557
vt 0.026001106947660446 0.0021486436016857624
vt 0.088087350130081177 0.0021486436016857624
vt 0.088087350130081177 0.11903087049722672
vt 0.22230882942676544 0.34179612994194031
vt 0 0.34179612994194031
vt 0.22230882942676544 0.44043314456939697
vt 0 0.44043314456939697
vt 0.77790868282318115 0.22062648832798004
vt 0.55706465244293213 0.22062648832798004
vt 0.77790868282318115 0.96670013666152954
vt 0.55706465244293213 0.96670013666152954
vt 0.11766345798969269 0.53429949283599854
vt 0.11766345798969269 0.75660830736160278
vt 0.33329099416732788 0.53429949283599854
vt 0.33329099416732788 0.75660830736160278
vt 0.22230882942676544 0.22062648832798004
vt 0 0.22062648832798004
vt 0.22230882942676544 0.28271275758743286
vt 0 0.28271275758743286
vt 0 0.53429949283599854
vt 0 0.75660830736160278
vt 0.11619861423969269 0.53429949283599854
vt 0.11619861423969269 0.75660830736160278
vt 0.55559980869293213 0.22062648832798004
vt 0.33475583791732788 0.22062648832798004
vt 0.55559980869293213 0.88755297660827637
vt 0.33475583791732788 0.88755297660827637
vn 0 -1 0
vn 0 -1 0
vn 0 -1 0
vn 0 -1 0
vn 0 -1 0
vn 0 -1 0
vn 0 1 0
vn 0 1 0
vn 0 1 0
vn 0 1 0
vn 0 1 0
vn 0 1 0
vn 0 0 1
vn 0 0 1
vn 0 0 1
vn 0 0 1
vn 1 0 0
vn 1 0 0
vn 1 0 0
vn 1 0 0
vn -0.085335724055767059 0 -0.99635225534439087
vn -0.085335724055767059 0 -0.99635225534439087
vn -0.085335724055767059 0 -0.99635225534439087
vn -0.085335724055767059 0 -0.99635225534439087
vn -1 0 0
vn -1 0 0
vn -1 0 0
vn -1 0 0
vn 0 0 1
vn 0 0 1
vn 0 0 1
vn 0 0 1
vn -1 0 0
vn -1 0 0
vn -1 0 0
vn -1 0 0
f 6/6/6 5/5/5 4/4/4
f 2/2/2 1/1/1 6/6/6 3/3/3
f 4/4/4 3/3/3 6/6/6
f 12/12/12 10/10/10 11/11/11
f 8/8/8 9/9/9 12/12/12 7/7/7
f 10/10/10 12/12/12 9/9/9
f 14/14/14 13/13/13 15/15/15 16/16/16
f 18/18/18 17/17/17 19/19/19 20/20/20
f 22/22/22 21/21/21 23/23/23 24/24/24
f 26/26/26 25/25/25 27/27/27 28/28/28
f 30/30/30 29/29/29 31/31/31 32/32/32
f 34/34/34 33/33/33 35/35/35 36/36/36
