# Rhino

mtllib 4.mtl
usemtl diffuse_Black
v 2.6047296524047852 0 5
v 3.2297296524047852 0 5
v 3.2297296524047852 0 3.5844595432281494
v 3.898648738861084 0 3.5844595432281494
v 3.898648738861084 0 3.0405404567718506
v 3.2297296524047852 0 3.0405404567718506
v 3.2297296524047852 0 0
v 2.6047296524047852 0 0
v 0.35472974181175232 0 3.0810811519622803
v 0.35472974181175232 0 3.5844595432281494
v 2.6047296524047852 0 3.5844595432281494
v 2.648648738861084 0 3.0405404567718506
v 1.0076541900634766 0 3.0405404567718506
v 2.648648738861084 0 0.81630069017410278
v 2.6047296524047852 1.5 5
v 3.2297296524047852 1.5 5
v 3.2297296524047852 1.5 3.5844595432281494
v 3.898648738861084 1.5 3.5844595432281494
v 3.898648738861084 1.5 3.0405404567718506
v 3.2297296524047852 1.5 3.0405404567718506
v 3.2297296524047852 1.5 0
v 2.6047296524047852 1.5 0
v 0.35472974181175232 1.5 3.0810811519622803
v 0.35472974181175232 1.5 3.5844595432281494
v 2.6047296524047852 1.5 3.5844595432281494
v 2.648648738861084 1.5 3.0405404567718506
v 1.0076541900634766 1.5 3.0405404567718506
v 2.648648738861084 1.5 0.81630069017410278
v 2.6047296524047852 0 5
v 2.6047296524047852 1.5 5
v 3.2297296524047852 0 5
v 3.2297296524047852 1.5 5
v 3.2297296524047852 0 5
v 3.2297296524047852 1.5 5
v 3.2297296524047852 0 3.5844595432281494
v 3.2297296524047852 1.5 3.5844595432281494
v 3.2297296524047852 0 3.5844595432281494
v 3.2297296524047852 1.5 3.5844595432281494
v 3.898648738861084 0 3.5844595432281494
v 3.898648738861084 1.5 3.5844595432281494
v 3.898648738861084 0 3.5844595432281494
v 3.898648738861084 1.5 3.5844595432281494
v 3.898648738861084 0 3.0405404567718506
v 3.898648738861084 1.5 3.0405404567718506
v 3.898648738861084 0 3.0405404567718506
v 3.898648738861084 1.5 3.0405404567718506
v 3.2297296524047852 0 3.0405404567718506
v 3.2297296524047852 1.5 3.0405404567718506
v 3.2297296524047852 0 3.0405404567718506
v 3.2297296524047852 1.5 3.0405404567718506
v 3.2297296524047852 0 0
v 3.2297296524047852 1.5 0
v 3.2297296524047852 0 0
v 3.2297296524047852 1.5 0
v 2.6047296524047852 0 0
v 2.6047296524047852 1.5 0
v 2.6047296524047852 0 0
v 2.6047296524047852 1.5 0
v 0.35472974181175232 0 3.0810811519622803
v 0.35472974181175232 1.5 3.0810811519622803
v 0.35472974181175232 0 3.0810811519622803
v 0.35472974181175232 1.5 3.0810811519622803
v 0.35472974181175232 0 3.5844595432281494
v 0.35472974181175232 1.5 3.5844595432281494
v 0.35472974181175232 0 3.5844595432281494
v 0.35472974181175232 1.5 3.5844595432281494
v 2.6047296524047852 0 3.5844595432281494
v 2.6047296524047852 1.5 3.5844595432281494
v 2.6047296524047852 0 3.5844595432281494
v 2.6047296524047852 1.5 3.5844595432281494
v 2.6047296524047852 0 5
v 2.6047296524047852 1.5 5
v 1.0076541900634766 0 3.0405404567718506
v 1.0076541900634766 1.5 3.0405404567718506
v 2.648648738861084 0 3.0405404567718506
v 2.648648738861084 1.5 3.0405404567718506
v 2.648648738861084 0 0.81630069017410278
v 2.648648738861084 1.5 0.81630069017410278
v 1.0076541900634766 0 3.0405404567718506
v 1.0076541900634766 1.5 3.0405404567718506
v 2.648648738861084 0 3.0405404567718506
v 2.648648738861084 1.5 3.0405404567718506
v 2.648648738861084 0 0.81630069017410278
v 2.648648738861084 1.5 0.81630069017410278
vt 0.86912167072296143 0.0048877792432904243
vt 0.92996567487716675 0.0048877792432904243
vt 0.92996567487716675 0.1432647705078125
vt 0.99508512020111084 0.1432647705078125
vt 0.99508512020111084 0.19643588364124298
vt 0.92996567487716675 0.19643588364124298
vt 0.92996567487716675 0.49366569519042969
vt 0.86912167072296143 0.49366569519042969
vt 0.65008342266082764 0.19247281551361084
vt 0.65008342266082764 0.1432647705078125
vt 0.86912167072296143 0.1432647705078125
vt 0.87339723110198975 0.19643588364124298
vt 0.7136458158493042 0.19643588364124298
vt 0.87339723110198975 0.4138677716255188
vt 0.5157550573348999 0.37782809138298035
vt 0.57659906148910522 0.37782809138298035
vt 0.57659906148910522 0.51579850912094116
vt 0.64171850681304932 0.51579850912094116
vt 0.64171850681304932 0.56881338357925415
vt 0.57659906148910522 0.56881338357925415
vt 0.57659906148910522 0.86516988277435303
vt 0.5157550573348999 0.86516988277435303
vt 0.29671677947044373 0.5648619532585144
vt 0.29671677947044373 0.51579850912094116
vt 0.5157550573348999 0.51579850912094116
vt 0.52003055810928345 0.56881338357925415
vt 0.36027920246124268 0.56881338357925415
vt 0.52003055810928345 0.78560638427734375
vt 0.22881788015365601 0
vt 0.22881788015365601 0.14663337171077728
vt 0.28991511464118958 0
vt 0.28991511464118958 0.14663337171077728
vt 0.29180189967155457 0.73190820217132568
vt 0.14663337171077728 0.73190820217132568
vt 0.29180189967155457 0.87004327774047852
vt 0.14663337171077728 0.87004327774047852
vt 0.07409340888261795 0.14918187260627747
vt 0.07409340888261795 0.29581522941589355
vt 0.1394839733839035 0.14918187260627747
vt 0.1394839733839035 0.29581522941589355
vt 0.068876489996910095 0
vt 0.068876489996910095 0.14663337171077728
vt 0.12204760313034058 0
vt 0.12204760313034058 0.14663337171077728
vt 0 0.14918187260627747
vt 0 0.29581522941589355
vt 0.065390557050704956 0.14918187260627747
vt 0.065390557050704956 0.29581522941589355
vt 0.46096906065940857 0
vt 0.31433567404747009 0
vt 0.46096906065940857 0.2972298264503479
vt 0.31433567404747009 0.2972298264503479
vt 0.14330008625984192 0
vt 0.14330008625984192 0.14663337171077728
vt 0.20439732074737549 0
vt 0.20439732074737549 0.14663337171077728
vt 0.62711787223815918 0
vt 0.48048451542854309 0
vt 0.62711787223815918 0.37148982286453247
vt 0.48048451542854309 0.37148982286453247
vt 0 0
vt 0 0.14663337171077728
vt 0.049208048731088638 0
vt 0.049208048731088638 0.14663337171077728
vt 0.29482018947601318 0.14918187260627747
vt 0.1481868177652359 0.14918187260627747
vt 0.29482018947601318 0.36913192272186279
vt 0.1481868177652359 0.36913192272186279
vt 0.29180189967155457 0.59230822324752808
vt 0.14663337171077728 0.59230822324752808
vt 0.29180189967155457 0.73044335842132568
vt 0.14663337171077728 0.73044335842132568
vt 0.14516852796077728 0.37295466661453247
vt 0 0.37295466661453247
vt 0.14516852796077728 0.53337103128433228
vt 0 0.53337103128433228
vt 0.14516852796077728 0.59230822324752808
vt 0 0.59230822324752808
vt 0.14516852796077728 0.86251187324523926
vt 0 0.86251187324523926
vt 0.29180189967155457 0.37295466661453247
vt 0.14663337171077728 0.37295466661453247
vt 0.29180189967155457 0.59038650989532471
vt 0.14663337171077728 0.59038650989532471
vn 0 -1 0
vn 0 -1 0
vn 0 -1 0
vn 0 -1 0
vn 0 -1 0
vn 0 -1 0
vn 0 -1 0
vn 0 -1 0
vn 0 -1 0
vn 0 -1 0
vn 0 -1 0
vn 0 -1 0
vn 0 -1 0
vn 0 -1 0
vn 0 1 0
vn 0 1 0
vn 0 1 0
vn 0 1 0
vn 0 1 0
vn 0 1 0
vn 0 1 0
vn 0 1 0
vn 0 1 0
vn 0 1 0
vn 0 1 0
vn 0 1 0
vn 0 1 0
vn 0 1 0
vn 0 0 1
vn 0 0 1
vn 0 0 1
vn 0 0 1
vn 1 0 0
vn 1 0 0
vn 1 0 0
vn 1 0 0
vn 0 0 1
vn 0 0 1
vn 0 0 1
vn 0 0 1
vn 1 0 0
vn 1 0 0
vn 1 0 0
vn 1 0 0
vn 0 0 -1
vn 0 0 -1
vn 0 0 -1
vn 0 0 -1
vn 1 0 0
vn 1 0 0
vn 1 0 0
vn 1 0 0
vn 0 0 -1
vn 0 0 -1
vn 0 0 -1
vn 0 0 -1
vn -0.80758577585220337 0 -0.58975011110305786
vn -0.80758577585220337 0 -0.58975011110305786
vn -0.80758577585220337 0 -0.58975011110305786
vn -0.80758577585220337 0 -0.58975011110305786
vn -1 0 0
vn -1 0 0
vn -1 0 0
vn -1 0 0
vn 0 0 1
vn 0 0 1
vn 0 0 1
vn 0 0 1
vn -1 0 0
vn -1 0 0
vn -1 0 0
vn -1 0 0
vn 0 0 -1
vn 0 0 -1
vn 0 0 -1
vn 0 0 -1
vn 0.80469614267349243 0 0.59368687868118286
vn 0.80469614267349243 0 0.59368687868118286
vn 0.80469614267349243 0 0.59368687868118286
vn 0.80469614267349243 0 0.59368687868118286
vn -1 0 0
vn -1 0 0
vn -1 0 0
vn -1 0 0
f 11/11/11 12/12/12 6/6/6 3/3/3
f 10/10/10 13/13/13 12/12/12 11/11/11
f 8/8/8 13/13/13 9/9/9
f 13/13/13 10/10/10 9/9/9
f 8/8/8 14/14/14 13/13/13
f 11/11/11 3/3/3 2/2/2 1/1/1
f 4/4/4 3/3/3 6/6/6 5/5/5
f 14/14/14 7/7/7 6/6/6 12/12/12
f 8/8/8 7/7/7 14/14/14
f 25/25/25 17/17/17 20/20/20 26/26/26
f 24/24/24 25/25/25 26/26/26 27/27/27
f 22/22/22 23/23/23 27/27/27
f 27/27/27 23/23/23 24/24/24
f 22/22/22 27/27/27 28/28/28
f 25/25/25 15/15/15 16/16/16 17/17/17
f 18/18/18 19/19/19 20/20/20 17/17/17
f 28/28/28 26/26/26 20/20/20 21/21/21
f 22/22/22 28/28/28 21/21/21
f 30/30/30 29/29/29 31/31/31 32/32/32
f 34/34/34 33/33/33 35/35/35 36/36/36
f 38/38/38 37/37/37 39/39/39 40/40/40
f 42/42/42 41/41/41 43/43/43 44/44/44
f 46/46/46 45/45/45 47/47/47 48/48/48
f 50/50/50 49/49/49 51/51/51 52/52/52
f 54/54/54 53/53/53 55/55/55 56/56/56
f 58/58/58 57/57/57 59/59/59 60/60/60
f 62/62/62 61/61/61 63/63/63 64/64/64
f 66/66/66 65/65/65 67/67/67 68/68/68
f 70/70/70 69/69/69 71/71/71 72/72/72
f 74/74/74 76/76/76 75/75/75 73/73/73
f 78/78/78 80/80/80 79/79/79 77/77/77
f 82/82/82 84/84/84 83/83/83 81/81/81
