# Rhino

mtllib 5.mtl
usemtl diffuse_Black
v 0.84121620655059814 0 5.0202703475952148
v 1.5750477313995361 0 5.1220898628234863
v 2.3036558628082275 0 5.0664968490600586
v 2.9718697071075439 0 4.7816629409790039
v 3.4218404293060303 0 4.2395157814025879
v 3.5533571243286133 0 3.5117237567901611
v 3.387310266494751 0 2.8021879196166992
v 2.9081404209136963 0 2.2619102001190186
v 2.2402844429016113 0 1.9757412672042847
v 1.5101351737976074 0 1.8986486196517944
v 1.5101351737976074 0 0.58445948362350464
v 3.4560811519622803 0 0.58445948362350464
v 3.4560811519622803 0 0
v 0.92567569017410278 0 0
v 0.92567569017410278 0 2.4324324131011963
v 1.4514938592910767 0 2.4121086597442627
v 1.9668922424316406 0 2.4830915927886963
v 2.4459459781646729 0 2.6976351737976074
v 2.7608156204223633 0 3.0863037109375
v 2.8435790538787842 0 3.5942094326019287
v 2.7159638404846191 0 4.1226062774658203
v 2.3673100471496582 0 4.4866738319396973
v 1.8698490858078003 0 4.6228818893432617
v 1.349321722984314 0 4.5799651145935059
v 0.84121620655059814 0 4.4256758689880371
v 0.84121620655059814 1.5 5.0202703475952148
v 1.5750477313995361 1.5 5.1220898628234863
v 2.3036558628082275 1.5 5.0664968490600586
v 2.9718697071075439 1.5 4.7816629409790039
v 3.4218404293060303 1.5 4.2395157814025879
v 3.5533571243286133 1.5 3.5117237567901611
v 3.387310266494751 1.5 2.8021879196166992
v 2.9081404209136963 1.5 2.2619102001190186
v 2.2402844429016113 1.5 1.9757412672042847
v 1.5101351737976074 1.5 1.8986486196517944
v 1.5101351737976074 1.5 0.58445948362350464
v 3.4560811519622803 1.5 0.58445948362350464
v 3.4560811519622803 1.5 0
v 0.92567569017410278 1.5 0
v 0.92567569017410278 1.5 2.4324324131011963
v 1.4514938592910767 1.5 2.4121086597442627
v 1.9668922424316406 1.5 2.4830915927886963
v 2.4459459781646729 1.5 2.6976351737976074
v 2.7608156204223633 1.5 3.0863037109375
v 2.8435790538787842 1.5 3.5942094326019287
v 2.7159638404846191 1.5 4.1226062774658203
v 2.3673100471496582 1.5 4.4866738319396973
v 1.8698490858078003 1.5 4.6228818893432617
v 1.349321722984314 1.5 4.5799651145935059
v 0.84121620655059814 1.5 4.4256758689880371
v 0.84121620655059814 0 5.0202703475952148
v 0.84121620655059814 1.5 5.0202703475952148
v 1.5750477313995361 0 5.1220898628234863
v 1.5750477313995361 1.5 5.1220898628234863
v 2.3036558628082275 0 5.0664968490600586
v 2.3036558628082275 1.5 5.0664968490600586
v 2.9718697071075439 0 4.7816629409790039
v 2.9718697071075439 1.5 4.7816629409790039
v 3.4218404293060303 0 4.2395157814025879
v 3.4218404293060303 1.5 4.2395157814025879
v 3.5533571243286133 0 3.5117237567901611
v 3.5533571243286133 1.5 3.5117237567901611
v 3.387310266494751 0 2.8021879196166992
v 3.387310266494751 1.5 2.8021879196166992
v 2.9081404209136963 0 2.2619102001190186
v 2.9081404209136963 1.5 2.2619102001190186
v 2.2402844429016113 0 1.9757412672042847
v 2.2402844429016113 1.5 1.9757412672042847
v 1.5101351737976074 0 1.8986486196517944
v 1.5101351737976074 1.5 1.8986486196517944
v 1.5101351737976074 0 1.8986486196517944
v 1.5101351737976074 1.5 1.8986486196517944
v 1.5101351737976074 0 0.58445948362350464
v 1.5101351737976074 1.5 0.58445948362350464
v 1.5101351737976074 0 0.58445948362350464
v 1.5101351737976074 1.5 0.58445948362350464
v 3.4560811519622803 0 0.58445948362350464
v 3.4560811519622803 1.5 0.58445948362350464
v 3.4560811519622803 0 0.58445948362350464
v 3.4560811519622803 1.5 0.58445948362350464
v 3.4560811519622803 0 0
v 3.4560811519622803 1.5 0
v 3.4560811519622803 0 0
v 3.4560811519622803 1.5 0
v 0.92567569017410278 0 0
v 0.92567569017410278 1.5 0
v 0.92567569017410278 0 0
v 0.92567569017410278 1.5 0
v 0.92567569017410278 0 2.4324324131011963
v 0.92567569017410278 1.5 2.4324324131011963
v 0.92567569017410278 0 2.4324324131011963
v 0.92567569017410278 1.5 2.4324324131011963
v 1.4514938592910767 0 2.4121086597442627
v 1.4514938592910767 1.5 2.4121086597442627
v 1.9668922424316406 0 2.4830915927886963
v 1.9668922424316406 1.5 2.4830915927886963
v 2.4459459781646729 0 2.6976351737976074
v 2.4459459781646729 1.5 2.6976351737976074
v 2.7608156204223633 0 3.0863037109375
v 2.7608156204223633 1.5 3.0863037109375
v 2.8435790538787842 0 3.5942094326019287
v 2.8435790538787842 1.5 3.5942094326019287
v 2.7159638404846191 0 4.1226062774658203
v 2.7159638404846191 1.5 4.1226062774658203
v 2.3673100471496582 0 4.4866738319396973
v 2.3673100471496582 1.5 4.4866738319396973
v 1.8698490858078003 0 4.6228818893432617
v 1.8698490858078003 1.5 4.6228818893432617
v 1.349321722984314 0 4.5799651145935059
v 1.349321722984314 1.5 4.5799651145935059
v 0.84121620655059814 0 4.4256758689880371
v 0.84121620655059814 1.5 4.4256758689880371
v 0.84121620655059814 0 4.4256758689880371
v 0.84121620655059814 1.5 4.4256758689880371
v 0.84121620655059814 0 5.0202703475952148
v 0.84121620655059814 1.5 5.0202703475952148
vt 0.82785791158676147 0.71476548910140991
vt 0.83853679895401001 0.79154586791992188
vt 0.83270621299743652 0.86777967214584351
vt 0.80283254384994507 0.9376944899559021
vt 0.74597162008285522 0.98477464914321899
vt 0.66964006423950195 0.99853515625
vt 0.59522324800491333 0.98116177320480347
vt 0.53855836391448975 0.93102651834487915
vt 0.5085446834564209 0.8611491322517395
vt 0.50045913457870483 0.78475409746170044
vt 0.36262565851211548 0.78475409746170044
vt 0.36262565851211548 0.98835718631744385
vt 0.3013269305229187 0.98835718631744385
vt 0.3013269305229187 0.72360241413116455
vt 0.55644285678863525 0.72360241413116455
vt 0.55431133508682251 0.7786184549331665
vt 0.56175607442855835 0.83254426717758179
vt 0.58425760269165039 0.88266736268997192
vt 0.62502157688140869 0.91561204195022583
vt 0.6782912015914917 0.92427152395248413
vt 0.73370999097824097 0.910919189453125
vt 0.77189373970031738 0.8744397759437561
vt 0.78617942333221436 0.82239073514938354
vt 0.78167825937271118 0.76792824268341064
vt 0.76549619436264038 0.71476548910140991
vt 0.82785791158676147 0.42669257521629333
vt 0.83853679895401001 0.50347292423248291
vt 0.83270621299743652 0.57970672845840454
vt 0.80283254384994507 0.64962154626846313
vt 0.74597162008285522 0.69670170545578003
vt 0.66964006423950195 0.71046221256256104
vt 0.59522324800491333 0.6930888295173645
vt 0.53855836391448975 0.64295357465744019
vt 0.5085446834564209 0.57307624816894531
vt 0.50045913457870483 0.49668115377426147
vt 0.36262565851211548 0.49668115377426147
vt 0.36262565851211548 0.70028430223464966
vt 0.3013269305229187 0.70028430223464966
vt 0.3013269305229187 0.43552950024604797
vt 0.55644285678863525 0.43552950024604797
vt 0.55431133508682251 0.49054554104804993
vt 0.56175607442855835 0.5444713830947876
vt 0.58425760269165039 0.59459447860717773
vt 0.62502157688140869 0.62753909826278687
vt 0.6782912015914917 0.63619858026504517
vt 0.73370999097824097 0.62284624576568604
vt 0.77189373970031738 0.58636683225631714
vt 0.78617942333221436 0.53431779146194458
vt 0.78167825937271118 0.47985532879829407
vt 0.76549619436264038 0.42669257521629333
vt 0.99628305435180664 0
vt 0.84000164270401001 0
vt 0.99628305435180664 0.11560485512018204
vt 0.84000164270401001 0.11560485512018204
vt 0.99628305435180664 0.1908920556306839
vt 0.84000164270401001 0.1908920556306839
vt 0.99628305435180664 0.26509258151054382
vt 0.84000164270401001 0.26509258151054382
vt 0.99628305435180664 0.34424507617950439
vt 0.84000164270401001 0.34424507617950439
vt 0.99628305435180664 0.42117571830749512
vt 0.84000164270401001 0.42117571830749512
vt 0.99628305435180664 0.49324688315391541
vt 0.84000164270401001 0.49324688315391541
vt 0.99628305435180664 0.56796920299530029
vt 0.84000164270401001 0.56796920299530029
vt 0.99628305435180664 0.63575577735900879
vt 0.84000164270401001 0.63575577735900879
vt 0.99628305435180664 0.69365757703781128
vt 0.84000164270401001 0.69365757703781128
vt 0 0.64123243093490601
vt 0 0.79897862672805786
vt 0.13674074411392212 0.64123243093490601
vt 0.13674074411392212 0.79897862672805786
vt 0.29448696970939636 0.64123243093490601
vt 0.13820558786392212 0.64123243093490601
vt 0.29448696970939636 0.84587615728378296
vt 0.13820558786392212 0.84587615728378296
vt 0.15774622559547424 0.42385414242744446
vt 0 0.42385414242744446
vt 0.15774622559547424 0.48531833291053772
vt 0 0.48531833291053772
vt 0.57774704694747925 0
vt 0.420000821352005 0
vt 0.57774704694747925 0.26464307308197021
vt 0.420000821352005 0.26464307308197021
vt 0.15774622559547424 0
vt 0 0
vt 0.15774622559547424 0.25580468773841858
vt 0 0.25580468773841858
vt 0 0.26610791683197021
vt 0 0.42238929867744446
vt 0.10162828862667084 0.26610791683197021
vt 0.10162828862667084 0.42238929867744446
vt 0.13833270967006683 0.26610791683197021
vt 0.13833270967006683 0.42238929867744446
vt 0.18356238305568695 0.26610791683197021
vt 0.18356238305568695 0.42238929867744446
vt 0.2332683801651001 0.26610791683197021
vt 0.2332683801651001 0.42238929867744446
vt 0.28085044026374817 0.26610791683197021
vt 0.28085044026374817 0.42238929867744446
vt 0.33732029795646667 0.26610791683197021
vt 0.33732029795646667 0.42238929867744446
vt 0.39557692408561707 0.26610791683197021
vt 0.39557692408561707 0.42238929867744446
vt 0.45106971263885498 0.26610791683197021
vt 0.45106971263885498 0.42238929867744446
vt 0.5025322437286377 0.26610791683197021
vt 0.5025322437286377 0.42238929867744446
vt 0.55068713426589966 0.26610791683197021
vt 0.55068713426589966 0.42238929867744446
vt 0.15774622559547424 0.53160899877548218
vt 0 0.53160899877548218
vt 0.15774622559547424 0.59413903951644897
vt 0 0.59413903951644897
vn 0 -1 0
vn 0 -1 0
vn 0 -1 0
vn 0 -1 0
vn 0 -1 0
vn 0 -1 0
vn 0 -1 0
vn 0 -1 0
vn 0 -1 0
vn 0 -1 0
vn 0 -1 0
vn 0 -1 0
vn 0 -1 0
vn 0 -1 0
vn 0 -1 0
vn 0 -1 0
vn 0 -1 0
vn 0 -1 0
vn 0 -1 0
vn 0 -1 0
vn 0 -1 0
vn 0 -1 0
vn 0 -1 0
vn 0 -1 0
vn 0 -1 0
vn 0 1 0
vn 0 1 0
vn 0 1 0
vn 0 1 0
vn 0 1 0
vn 0 1 0
vn 0 1 0
vn 0 1 0
vn 0 1 0
vn 0 1 0
vn 0 1 0
vn 0 1 0
vn 0 1 0
vn 0 1 0
vn 0 1 0
vn 0 1 0
vn 0 1 0
vn 0 1 0
vn 0 1 0
vn 0 1 0
vn 0 1 0
vn 0 1 0
vn 0 1 0
vn 0 1 0
vn 0 1 0
vn -0.21328648924827576 0 0.97698968648910522
vn -0.21328648924827576 0 0.97698968648910522
vn -0.04350665956735611 0 0.99905312061309814
vn -0.04350665956735611 0 0.99905312061309814
vn 0.20997951924800873 0 0.97770577669143677
vn 0.20997951924800873 0 0.97770577669143677
vn 0.58334940671920776 0 0.81222134828567505
vn 0.58334940671920776 0 0.81222134828567505
vn 0.91175675392150879 0 0.41073063015937805
vn 0.91175675392150879 0 0.41073063015937805
vn 0.99968373775482178 0 -0.025147413834929466
vn 0.99968373775482178 0 -0.025147413834929466
vn 0.8925665020942688 0 -0.45091581344604492
vn 0.8925665020942688 0 -0.45091581344604492
vn 0.56849223375320435 0 -0.82268863916397095
vn 0.56849223375320435 0 -0.82268863916397095
vn 0.22860962152481079 0 -0.97351819276809692
vn 0.22860962152481079 0 -0.97351819276809692
vn 0 0 -1
vn 0 0 -1
vn 1 0 0
vn 1 0 0
vn 1 0 0
vn 1 0 0
vn 0 0 1
vn 0 0 1
vn 0 0 1
vn 0 0 1
vn 1 0 0
vn 1 0 0
vn 1 0 0
vn 1 0 0
vn 0 0 -1
vn 0 0 -1
vn 0 0 -1
vn 0 0 -1
vn -1 0 0
vn -1 0 0
vn -1 0 0
vn -1 0 0
vn 0.12189130485057831 0 0.99254345893859863
vn 0.12189130485057831 0 0.99254345893859863
vn -0.043283414095640182 0 0.99906283617019653
vn -0.043283414095640182 0 0.99906283617019653
vn -0.24752694368362427 0 0.96888101100921631
vn -0.24752694368362427 0 0.96888101100921631
vn -0.58674263954162598 0 0.80977344512939453
vn -0.58674263954162598 0 0.80977344512939453
vn -0.9199407696723938 0 0.39205732941627502
vn -0.9199407696723938 0 0.39205732941627502
vn -0.99942052364349365 0 -0.0340387262403965
vn -0.99942052364349365 0 -0.0340387262403965
vn -0.88487648963928223 0 -0.46582570672035217
vn -0.88487648963928223 0 -0.46582570672035217
vn -0.49965319037437439 0 -0.86622554063796997
vn -0.49965319037437439 0 -0.86622554063796997
vn -0.052129220217466354 0 -0.99864035844802856
vn -0.052129220217466354 0 -0.99864035844802856
vn 0.19688233733177185 0 -0.98042714595794678
vn 0.19688233733177185 0 -0.98042714595794678
vn 0.3724789023399353 0 -0.92804068326950073
vn 0.3724789023399353 0 -0.92804068326950073
vn -1 0 0
vn -1 0 0
vn -1 0 0
vn -1 0 0
f 25/25/25 24/24/24 1/1/1
f 2/2/2 1/1/1 24/24/24
f 3/3/3 2/2/2 23/23/23
f 18/18/18 17/17/17 9/9/9
f 2/2/2 24/24/24 23/23/23
f 14/14/14 11/11/11 10/10/10 15/15/15
f 16/16/16 15/15/15 10/10/10
f 17/17/17 16/16/16 10/10/10
f 10/10/10 9/9/9 17/17/17
f 13/13/13 12/12/12 11/11/11 14/14/14
f 21/21/21 4/4/4 22/22/22
f 3/3/3 22/22/22 4/4/4
f 20/20/20 5/5/5 21/21/21
f 4/4/4 21/21/21 5/5/5
f 6/6/6 5/5/5 20/20/20
f 8/8/8 19/19/19 18/18/18
f 7/7/7 19/19/19 8/8/8
f 20/20/20 19/19/19 7/7/7
f 7/7/7 6/6/6 20/20/20
f 18/18/18 9/9/9 8/8/8
f 3/3/3 23/23/23 22/22/22
f 50/50/50 26/26/26 49/49/49
f 27/27/27 49/49/49 26/26/26
f 28/28/28 48/48/48 27/27/27
f 43/43/43 34/34/34 42/42/42
f 27/27/27 48/48/48 49/49/49
f 39/39/39 40/40/40 35/35/35 36/36/36
f 41/41/41 35/35/35 40/40/40
f 42/42/42 35/35/35 41/41/41
f 35/35/35 42/42/42 34/34/34
f 38/38/38 39/39/39 36/36/36 37/37/37
f 46/46/46 47/47/47 29/29/29
f 28/28/28 29/29/29 47/47/47
f 45/45/45 46/46/46 30/30/30
f 29/29/29 30/30/30 46/46/46
f 31/31/31 45/45/45 30/30/30
f 33/33/33 43/43/43 44/44/44
f 32/32/32 33/33/33 44/44/44
f 45/45/45 32/32/32 44/44/44
f 32/32/32 45/45/45 31/31/31
f 43/43/43 33/33/33 34/34/34
f 28/28/28 47/47/47 48/48/48
f 53/53/53 54/54/54 52/52/52 51/51/51
f 57/57/57 58/58/58 56/56/56 55/55/55
f 59/59/59 60/60/60 58/58/58 57/57/57
f 55/55/55 56/56/56 54/54/54 53/53/53
f 60/60/60 59/59/59 61/61/61 62/62/62
f 63/63/63 64/64/64 62/62/62 61/61/61
f 67/67/67 68/68/68 66/66/66 65/65/65
f 69/69/69 70/70/70 68/68/68 67/67/67
f 65/65/65 66/66/66 64/64/64 63/63/63
f 72/72/72 71/71/71 73/73/73 74/74/74
f 76/76/76 75/75/75 77/77/77 78/78/78
f 80/80/80 79/79/79 81/81/81 82/82/82
f 84/84/84 83/83/83 85/85/85 86/86/86
f 88/88/88 87/87/87 89/89/89 90/90/90
f 93/93/93 94/94/94 92/92/92 91/91/91
f 97/97/97 98/98/98 96/96/96 95/95/95
f 99/99/99 100/100/100 98/98/98 97/97/97
f 95/95/95 96/96/96 94/94/94 93/93/93
f 101/101/101 102/102/102 100/100/100 99/99/99
f 105/105/105 106/106/106 104/104/104 103/103/103
f 109/109/109 110/110/110 108/108/108 107/107/107
f 111/111/111 112/112/112 110/110/110 109/109/109
f 107/107/107 108/108/108 106/106/106 105/105/105
f 103/103/103 104/104/104 102/102/102 101/101/101
f 114/114/114 113/113/113 115/115/115 116/116/116
