# Rhino

mtllib 6.mtl
usemtl diffuse_Black
v 1.1891891956329346 0 2.4115288257598877
v 1.2519849538803101 0 1.6066018342971802
v 1.5010167360305786 0 0.89341872930526733
v 2.0845341682434082 0 0.42742809653282166
v 2.8583803176879883 0 0.4176202118396759
v 3.6216216087341309 0 0.64864861965179443
v 3.6216216087341309 0 0.064189188182353973
v 2.8226790428161621 0 -0.10435564815998077
v 2.0486149787902832 0 -0.085741244256496429
v 1.3451317548751831 0 0.22468583285808563
v 0.85047328472137451 0 0.82515108585357666
v 0.57362544536590576 0 1.5572788715362549
v 0.46996068954467773 0 2.323664665222168
v 0.48867130279541016 0 3.1394972801208496
v 0.6515163779258728 0 3.9052670001983643
v 1.0321669578552246 0 4.5923604965209961
v 1.6558430194854736 0 5.0327205657958984
v 2.4513819217681885 0 5.1112909317016602
v 3.1720175743103027 0 4.8339376449584961
v 3.6805641651153564 0 4.2364540100097656
v 3.8741726875305176 0 3.4849696159362793
v 3.763596773147583 0 2.6953365802764893
v 3.29270339012146 0 2.0774657726287842
v 2.5766539573669434 0 1.8033517599105835
v 1.8008764982223511 0 1.9131200313568115
v 3.2128379344940186 0 3.4712309837341309
v 3.1583487987518311 0 3.9173941612243652
v 2.9885795116424561 0 4.2765927314758301
v 2.6414976119995117 0 4.5556545257568359
v 2.2124207019805908 0 4.6234798431396484
v 1.7997673749923706 0 4.5078105926513672
v 1.4862687587738037 0 4.2194504737854004
v 1.3001203536987305 0 3.8423736095428467
v 1.2216620445251465 0 3.4059927463531494
v 1.2546132802963257 0 2.9702765941619873
v 1.4853447675704956 0 2.5914559364318848
v 1.8281393051147461 0 2.3557097911834717
v 2.251741886138916 0 2.273648738861084
v 2.6751573085784912 0 2.3656907081604004
v 2.9908101558685303 0 2.6426188945770264
v 3.1637701988220215 0 3.031996488571167
v 1.1891891956329346 1.5 2.4115288257598877
v 1.2519849538803101 1.5 1.6066018342971802
v 1.5010167360305786 1.5 0.89341872930526733
v 2.0845341682434082 1.5 0.42742809653282166
v 2.8583803176879883 1.5 0.4176202118396759
v 3.6216216087341309 1.5 0.64864861965179443
v 3.6216216087341309 1.5 0.064189188182353973
v 2.8226790428161621 1.5 -0.10435564815998077
v 2.0486149787902832 1.5 -0.085741244256496429
v 1.3451317548751831 1.5 0.22468583285808563
v 0.85047328472137451 1.5 0.82515108585357666
v 0.57362544536590576 1.5 1.5572788715362549
v 0.46996068954467773 1.5 2.323664665222168
v 0.48867130279541016 1.5 3.1394972801208496
v 0.6515163779258728 1.5 3.9052670001983643
v 1.0321669578552246 1.5 4.5923604965209961
v 1.6558430194854736 1.5 5.0327205657958984
v 2.4513819217681885 1.5 5.1112909317016602
v 3.1720175743103027 1.5 4.8339376449584961
v 3.6805641651153564 1.5 4.2364540100097656
v 3.8741726875305176 1.5 3.4849696159362793
v 3.763596773147583 1.5 2.6953365802764893
v 3.29270339012146 1.5 2.0774657726287842
v 2.5766539573669434 1.5 1.8033517599105835
v 1.8008764982223511 1.5 1.9131200313568115
v 3.2128379344940186 1.5 3.4712309837341309
v 3.1583487987518311 1.5 3.9173941612243652
v 2.9885795116424561 1.5 4.2765927314758301
v 2.6414976119995117 1.5 4.5556545257568359
v 2.2124207019805908 1.5 4.6234798431396484
v 1.7997673749923706 1.5 4.5078105926513672
v 1.4862687587738037 1.5 4.2194504737854004
v 1.3001203536987305 1.5 3.8423736095428467
v 1.2216620445251465 1.5 3.4059927463531494
v 1.2546132802963257 1.5 2.9702765941619873
v 1.4853447675704956 1.5 2.5914559364318848
v 1.8281393051147461 1.5 2.3557097911834717
v 2.251741886138916 1.5 2.273648738861084
v 2.6751573085784912 1.5 2.3656907081604004
v 2.9908101558685303 1.5 2.6426188945770264
v 3.1637701988220215 1.5 3.031996488571167
v 1.1891891956329346 0 2.4115288257598877
v 1.1891891956329346 1.5 2.4115288257598877
v 1.2519849538803101 0 1.6066018342971802
v 1.2519849538803101 1.5 1.6066018342971802
v 1.5010167360305786 0 0.89341872930526733
v 1.5010167360305786 1.5 0.89341872930526733
v 2.0845341682434082 0 0.42742809653282166
v 2.0845341682434082 1.5 0.42742809653282166
v 2.8583803176879883 0 0.4176202118396759
v 2.8583803176879883 1.5 0.4176202118396759
v 3.6216216087341309 0 0.64864861965179443
v 3.6216216087341309 1.5 0.64864861965179443
v 1.1891891956329346 0.75 2.4115288257598877
v 3.6216216087341309 0 0.64864861965179443
v 3.6216216087341309 1.5 0.64864861965179443
v 3.6216216087341309 0 0.064189188182353973
v 3.6216216087341309 1.5 0.064189188182353973
v 3.6216216087341309 0 0.064189188182353973
v 3.6216216087341309 1.5 0.064189188182353973
v 2.8226790428161621 0 -0.10435564815998077
v 2.8226790428161621 1.5 -0.10435564815998077
v 2.0486149787902832 0 -0.085741244256496429
v 2.0486149787902832 1.5 -0.085741244256496429
v 1.3451317548751831 0 0.22468583285808563
v 1.3451317548751831 1.5 0.22468583285808563
v 0.85047328472137451 0 0.82515108585357666
v 0.85047328472137451 1.5 0.82515108585357666
v 0.57362544536590576 0 1.5572788715362549
v 0.57362544536590576 1.5 1.5572788715362549
v 0.46996068954467773 0 2.323664665222168
v 0.46996068954467773 1.5 2.323664665222168
v 0.48867130279541016 0 3.1394972801208496
v 0.48867130279541016 1.5 3.1394972801208496
v 0.6515163779258728 0 3.9052670001983643
v 0.6515163779258728 1.5 3.9052670001983643
v 1.0321669578552246 0 4.5923604965209961
v 1.0321669578552246 1.5 4.5923604965209961
v 1.6558430194854736 0 5.0327205657958984
v 1.6558430194854736 1.5 5.0327205657958984
v 2.4513819217681885 0 5.1112909317016602
v 2.4513819217681885 1.5 5.1112909317016602
v 3.1720175743103027 0 4.8339376449584961
v 3.1720175743103027 1.5 4.8339376449584961
v 3.6805641651153564 0 4.2364540100097656
v 3.6805641651153564 1.5 4.2364540100097656
v 3.8741726875305176 0 3.4849696159362793
v 3.8741726875305176 1.5 3.4849696159362793
v 3.763596773147583 0 2.6953365802764893
v 3.763596773147583 1.5 2.6953365802764893
v 3.29270339012146 0 2.0774657726287842
v 3.29270339012146 1.5 2.0774657726287842
v 2.5766539573669434 0 1.8033517599105835
v 2.5766539573669434 1.5 1.8033517599105835
v 1.8008764982223511 0 1.9131200313568115
v 1.8008764982223511 1.5 1.9131200313568115
v 1.1891891956329346 0 2.4115288257598877
v 1.1891891956329346 1.5 2.4115288257598877
v 1.1891891956329346 0.75 2.4115288257598877
v 3.2128379344940186 0 3.4712309837341309
v 3.2128379344940186 1.5 3.4712309837341309
v 3.1637701988220215 0 3.031996488571167
v 3.1637701988220215 1.5 3.031996488571167
v 2.9908101558685303 0 2.6426188945770264
v 2.9908101558685303 1.5 2.6426188945770264
v 2.6751573085784912 0 2.3656907081604004
v 2.6751573085784912 1.5 2.3656907081604004
v 2.251741886138916 0 2.273648738861084
v 2.251741886138916 1.5 2.273648738861084
v 1.8281393051147461 0 2.3557097911834717
v 1.8281393051147461 1.5 2.3557097911834717
v 1.4853447675704956 0 2.5914559364318848
v 1.4853447675704956 1.5 2.5914559364318848
v 1.2546132802963257 0 2.9702765941619873
v 1.2546132802963257 1.5 2.9702765941619873
v 1.2216620445251465 0 3.4059927463531494
v 1.2216620445251465 1.5 3.4059927463531494
v 1.3001203536987305 0 3.8423736095428467
v 1.3001203536987305 1.5 3.8423736095428467
v 1.4862687587738037 0 4.2194504737854004
v 1.4862687587738037 1.5 4.2194504737854004
v 1.7997673749923706 0 4.5078105926513672
v 1.7997673749923706 1.5 4.5078105926513672
v 2.2124207019805908 0 4.6234798431396484
v 2.2124207019805908 1.5 4.6234798431396484
v 2.6414976119995117 0 4.5556545257568359
v 2.6414976119995117 1.5 4.5556545257568359
v 2.9885795116424561 0 4.2765927314758301
v 2.9885795116424561 1.5 4.2765927314758301
v 3.1583487987518311 0 3.9173941612243652
v 3.1583487987518311 1.5 3.9173941612243652
v 3.2128379344940186 0 3.4712309837341309
v 3.2128379344940186 1.5 3.4712309837341309
vt 0.16707773506641388 0.42774021625518799
vt 0.1136232316493988 0.43192806839942932
vt 0.066261358559131622 0.44853600859642029
vt 0.035315297544002533 0.48745077848434448
vt 0.034663967788219452 0.53905856609344482
vt 0.050006385892629623 0.58995914459228516
vt 0.011192926205694675 0.58995914459228516
vt 0 0.53667765855789185
vt 0.001236164360307157 0.48505532741546631
vt 0.021851373836398125 0.43814003467559814
vt 0.061727762222290039 0.40515124797821045
vt 0.11034773290157318 0.38668826222419739
vt 0.16124275326728821 0.37977486848831177
vt 0.21542152762413025 0.38102266192436218
vt 0.26627564430236816 0.39188280701637268
vt 0.31190493702888489 0.41726839542388916
vt 0.34114888310432434 0.45886135101318359
vt 0.34636664390563965 0.51191586256027222
vt 0.32794785499572754 0.5599750280380249
vt 0.28826949000358582 0.59389001131057739
vt 0.23836404085159302 0.60680180788040161
vt 0.1859251856803894 0.59942746162414551
vt 0.14489290118217468 0.56802356243133545
vt 0.12668922543525696 0.52027022838592529
vt 0.13397884368896484 0.46853363513946533
vt 0.23745167255401611 0.56269735097885132
vt 0.26708099246025085 0.55906349420547485
vt 0.29093506932258606 0.5477415919303894
vt 0.30946731567382813 0.52459466457366943
vt 0.31397154927253723 0.49597954750061035
vt 0.30629003047943115 0.46845969557762146
vt 0.28714028000831604 0.44755244255065918
vt 0.26209893822669983 0.43513822555541992
vt 0.23311924934387207 0.42990583181381226
vt 0.20418371260166168 0.43210333585739136
vt 0.17902655899524689 0.44749084115028381
vt 0.16337084770202637 0.47035181522369385
vt 0.15792123973369598 0.49860185384750366
vt 0.1640336811542511 0.52683943510055542
vt 0.18242424726486206 0.547890305519104
vt 0.20828248560428619 0.55942505598068237
vt 0.59555739164352417 0.18004715442657471
vt 0.59971821308135986 0.23372773826122284
vt 0.61621898412704468 0.28128990530967712
vt 0.65488266944885254 0.31236684322357178
vt 0.70615750551223755 0.31302094459533691
vt 0.75672966241836548 0.29761362075805664
vt 0.75672966241836548 0.33659124374389648
vt 0.70379197597503662 0.34783148765563965
vt 0.65250265598297119 0.34659010171890259
vt 0.60589009523391724 0.32588770985603333
vt 0.57311415672302246 0.28584268689155579
vt 0.55477029085159302 0.23701709508895874
vt 0.54790151119232178 0.18590681254863739
vt 0.5491412878036499 0.13149891793727875
vt 0.55993133783340454 0.080429740250110626
vt 0.58515316247940063 0.034607455134391785
vt 0.62647771835327148 0.0052398438565433025
vt 0.67918992042541504 0
vt 0.72693902254104614 0.018496694043278694
vt 0.7606351375579834 0.058342877775430679
vt 0.77346360683441162 0.10845937579870224
vt 0.76613688468933105 0.16111999750137329
vt 0.73493564128875732 0.20232582092285156
vt 0.68749040365219116 0.2206064760684967
vt 0.63608759641647339 0.21328602731227875
vt 0.72964376211166382 0.10937560349702835
vt 0.72603332996368408 0.079620979726314545
vt 0.71478444337844849 0.055666018277406693
vt 0.69178688526153564 0.037055391818284988
vt 0.66335642337799072 0.032532118260860443
vt 0.63601410388946533 0.040246102958917618
vt 0.61524176597595215 0.059476844966411591
vt 0.60290765762329102 0.084624104201793671
vt 0.59770900011062622 0.11372634023427963
vt 0.59989237785339355 0.14278425276279449
vt 0.61518055200576782 0.16804780066013336
vt 0.63789403438568115 0.18376971781253815
vt 0.66596180200576782 0.18924237787723541
vt 0.69401717185974121 0.18310408294200897
vt 0.71493226289749146 0.16463574767112732
vt 0.72639250755310059 0.13866814970970154
vt 0 0.10648468881845474
vt 0 0.20651969313621521
vt 0.029010383412241936 0.10648468881845474
vt 0.029010383412241936 0.20651969313621521
vt 0.064646564424037933 0.10648468881845474
vt 0.064646564424037933 0.20651969313621521
vt 0.10954269766807556 0.10648468881845474
vt 0.10954269766807556 0.20651969313621521
vt 0.18197061121463776 0.10648468881845474
vt 0.18197061121463776 0.20651969313621521
vt 0.26095542311668396 0.10648468881845474
vt 0.26095542311668396 0.20651969313621521
vt 0 0.15650218725204468
vt 0.10003501176834106 0
vt 0 0
vt 0.10003501176834106 0.038977604359388351
vt 0 0.038977604359388351
vt 0.44640165567398071 0
vt 0.34783148765563965 0
vt 0.44640165567398071 0.06686856597661972
vt 0.34783148765563965 0.06686856597661972
vt 0.44640165567398071 0.13080810010433197
vt 0.34783148765563965 0.13080810010433197
vt 0.44640165567398071 0.19223731756210327
vt 0.34783148765563965 0.19223731756210327
vt 0.44640165567398071 0.23066163063049316
vt 0.34783148765563965 0.23066163063049316
vt 0.44640165567398071 0.26272678375244141
vt 0.34783148765563965 0.26272678375244141
vt 0.44640165567398071 0.2902209460735321
vt 0.34783148765563965 0.2902209460735321
vt 0.44640165567398071 0.32306557893753052
vt 0.34783148765563965 0.32306557893753052
vt 0.44640165567398071 0.36308354139328003
vt 0.34783148765563965 0.36308354139328003
vt 0.44640165567398071 0.41002342104911804
vt 0.34783148765563965 0.41002342104911804
vt 0.44640165567398071 0.46212127804756165
vt 0.34783148765563965 0.46212127804756165
vt 0.44640165567398071 0.51575446128845215
vt 0.34783148765563965 0.51575446128845215
vt 0.44640165567398071 0.57523465156555176
vt 0.34783148765563965 0.57523465156555176
vt 0.44640165567398071 0.63404947519302368
vt 0.34783148765563965 0.63404947519302368
vt 0.44640165567398071 0.68950790166854858
vt 0.34783148765563965 0.68950790166854858
vt 0.44640165567398071 0.75134813785552979
vt 0.34783148765563965 0.75134813785552979
vt 0.44640165567398071 0.81794059276580811
vt 0.34783148765563965 0.81794059276580811
vt 0.44640165567398071 0.88395506143569946
vt 0.34783148765563965 0.88395506143569946
vt 0.44640165567398071 0.94254952669143677
vt 0.34783148765563965 0.94254952669143677
vt 0.44640165567398071 0.99853515625
vt 0.34783148765563965 0.99853515625
vt 0.39711657166481018 0.99853515625
vt 0.54643666744232178 0
vt 0.44786649942398071 0
vt 0.54643666744232178 0.025276534259319305
vt 0.44786649942398071 0.025276534259319305
vt 0.54643666744232178 0.053767938166856766
vt 0.44786649942398071 0.053767938166856766
vt 0.54643666744232178 0.084804698824882507
vt 0.44786649942398071 0.084804698824882507
vt 0.54643666744232178 0.1157357394695282
vt 0.44786649942398071 0.1157357394695282
vt 0.54643666744232178 0.1468755304813385
vt 0.44786649942398071 0.1468755304813385
vt 0.54643666744232178 0.17707566916942596
vt 0.44786649942398071 0.17707566916942596
vt 0.54643666744232178 0.21092513203620911
vt 0.44786649942398071 0.21092513203620911
vt 0.54643666744232178 0.23941034078598022
vt 0.44786649942398071 0.23941034078598022
vt 0.54643666744232178 0.26263275742530823
vt 0.44786649942398071 0.26263275742530823
vt 0.54643666744232178 0.28737610578536987
vt 0.44786649942398071 0.28737610578536987
vt 0.54643666744232178 0.31505075097084045
vt 0.44786649942398071 0.31505075097084045
vt 0.54643666744232178 0.34354478120803833
vt 0.44786649942398071 0.34354478120803833
vt 0.54643666744232178 0.37456068396568298
vt 0.44786649942398071 0.37456068396568298
vt 0.54643666744232178 0.40854716300964355
vt 0.44786649942398071 0.40854716300964355
vt 0.54643666744232178 0.43612992763519287
vt 0.44786649942398071 0.43612992763519287
vt 0.54643666744232178 0.46294295787811279
vt 0.44786649942398071 0.46294295787811279
vn 0 -1 0
vn 0 -1 0
vn 0 -1 0
vn 0 -1 0
vn 0 -1 0
vn 0 -1 0
vn 0 -1 0
vn 0 -1 0
vn 0 -1 0
vn 0 -1 0
vn 0 -1 0
vn 0 -1 0
vn 0 -1 0
vn 0 -1 0
vn 0 -1 0
vn 0 -1 0
vn 0 -1 0
vn 0 -1 0
vn 0 -1 0
vn 0 -1 0
vn 0 -1 0
vn 0 -1 0
vn 0 -1 0
vn 0 -1 0
vn 0 -1 0
vn 0 -1 0
vn 0 -1 0
vn 0 -1 0
vn 0 -1 0
vn 0 -1 0
vn 0 -1 0
vn 0 -1 0
vn 0 -1 0
vn 0 -1 0
vn 0 -1 0
vn 0 -1 0
vn 0 -1 0
vn 0 -1 0
vn 0 -1 0
vn 0 -1 0
vn 0 -1 0
vn 0 1 0
vn 0 1 0
vn 0 1 0
vn 0 1 0
vn 0 1 0
vn 0 1 0
vn 0 1 0
vn 0 1 0
vn 0 1 0
vn 0 1 0
vn 0 1 0
vn 0 1 0
vn 0 1 0
vn 0 1 0
vn 0 1 0
vn 0 1 0
vn 0 1 0
vn 0 1 0
vn 0 1 0
vn 0 1 0
vn 0 1 0
vn 0 1 0
vn 0 1 0
vn 0 1 0
vn 0 1 0
vn 0 1 0
vn 0 1 0
vn 0 1 0
vn 0 1 0
vn 0 1 0
vn 0 1 0
vn 0 1 0
vn 0 1 0
vn 0 1 0
vn 0 1 0
vn 0 1 0
vn 0 1 0
vn 0 1 0
vn 0 1 0
vn 0 1 0
vn 0 1 0
vn 1 0 0
vn 1 0 0
vn 0.98446810245513916 0 0.17556361854076385
vn 0.98446810245513916 0 0.17556361854076385
vn 0.85274714231491089 0 0.52232396602630615
vn 0.85274714231491089 0 0.52232396602630615
vn 0.2929539680480957 0 0.95612657070159912
vn 0.2929539680480957 0 0.95612657070159912
vn -0.19108860194683075 0 0.98157280683517456
vn -0.19108860194683075 0 0.98157280683517456
vn -0.3613695502281189 0 0.9324226975440979
vn -0.3613695502281189 0 0.9324226975440979
vn 1 0 0
vn 1 0 0
vn 1 0 0
vn 1 0 0
vn 1 0 0
vn 0.27215266227722168 0 -0.9622541069984436
vn 0.27215266227722168 0 -0.9622541069984436
vn 0.11839882284402847 0 -0.99296611547470093
vn 0.11839882284402847 0 -0.99296611547470093
vn -0.18422102928161621 0 -0.98288482427597046
vn -0.18422102928161621 0 -0.98288482427597046
vn -0.62842655181884766 0 -0.77786892652511597
vn -0.62842655181884766 0 -0.77786892652511597
vn -0.87276136875152588 0 -0.4881470799446106
vn -0.87276136875152588 0 -0.4881470799446106
vn -0.97337901592254639 0 -0.229201540350914
vn -0.97337901592254639 0 -0.229201540350914
vn -0.99872714281082153 0 -0.050439167767763138
vn -0.99872714281082153 0 -0.050439167767763138
vn -0.99466186761856079 0 0.10318791121244431
vn -0.99466186761856079 0 0.10318791121244431
vn -0.94452083110809326 0 0.32845151424407959
vn -0.94452083110809326 0 0.32845151424407959
vn -0.76339167356491089 0 0.64593583345413208
vn -0.76339167356491089 0 0.64593583345413208
vn -0.33782666921615601 0 0.9412083625793457
vn -0.33782666921615601 0 0.9412083625793457
vn 0.12105255573987961 0 0.99264609813690186
vn 0.12105255573987961 0 0.99264609813690186
vn 0.58607715368270874 0 0.81025522947311401
vn 0.58607715368270874 0 0.81025522947311401
vn 0.89179760217666626 0 0.45243459939956665
vn 0.89179760217666626 0 0.45243459939956665
vn 0.99827092885971069 0 0.058780111372470856
vn 0.99827092885971069 0 0.058780111372470856
vn 0.92915749549865723 0 -0.36968415975570679
vn 0.92915749549865723 0 -0.36968415975570679
vn 0.6039084792137146 0 -0.79705369472503662
vn 0.6039084792137146 0 -0.79705369472503662
vn 0.1025693491101265 0 -0.99472588300704956
vn 0.1025693491101265 0 -0.99472588300704956
vn -0.40385302901268005 0 -0.91482388973236084
vn -0.40385302901268005 0 -0.91482388973236084
vn -0.79183834791183472 0 -0.61073070764541626
vn -0.79183834791183472 0 -0.61073070764541626
vn -0.79183834791183472 0 -0.61073070764541626
vn -1 0 0
vn -1 0 0
vn -0.97051703929901123 0 0.2410324364900589
vn -0.97051703929901123 0 0.2410324364900589
vn -0.81697577238082886 0 0.57667195796966553
vn -0.81697577238082886 0 0.57667195796966553
vn -0.44615620374679565 0 0.8949550986289978
vn -0.44615620374679565 0 0.8949550986289978
vn 0 0 1
vn 0 0 1
vn 0.3892882764339447 0 0.92111599445343018
vn 0.3892882764339447 0 0.92111599445343018
vn 0.71194851398468018 0 0.70223164558410645
vn 0.71194851398468018 0 0.70223164558410645
vn 0.95713150501251221 0 0.28965365886688232
vn 0.95713150501251221 0 0.28965365886688232
vn 0.99777042865753174 0 -0.066739857196807861
vn 0.99777042865753174 0 -0.066739857196807861
vn 0.95367765426635742 0 -0.30083036422729492
vn 0.95367765426635742 0 -0.30083036422729492
vn 0.8113066554069519 0 -0.58462077379226685
vn 0.8113066554069519 0 -0.58462077379226685
vn 0.49238154292106628 0 -0.87037944793701172
vn 0.49238154292106628 0 -0.87037944793701172
vn 0.0515570268034935 0 -0.99867004156112671
vn 0.0515570268034935 0 -0.99867004156112671
vn -0.3880932629108429 0 -0.92162013053894043
vn -0.3880932629108429 0 -0.92162013053894043
vn -0.80500853061676025 0 -0.59326326847076416
vn -0.80500853061676025 0 -0.59326326847076416
vn -0.96455711126327515 0 -0.26387408375740051
vn -0.96455711126327515 0 -0.26387408375740051
vn -1 0 0
vn -1 0 0
f 33/33/33 15/15/15 34/34/34
f 35/35/35 34/34/34 14/14/14
f 15/15/15 14/14/14 34/34/34
f 35/35/35 14/14/14 1/1/1
f 33/33/33 16/16/16 15/15/15
f 32/32/32 31/31/31 17/17/17
f 30/30/30 17/17/17 31/31/31
f 32/32/32 16/16/16 33/33/33
f 17/17/17 16/16/16 32/32/32
f 36/36/36 35/35/35 1/1/1
f 12/12/12 1/1/1 13/13/13
f 14/14/14 13/13/13 1/1/1
f 11/11/11 2/2/2 12/12/12
f 1/1/1 12/12/12 2/2/2
f 3/3/3 2/2/2 11/11/11
f 36/36/36 1/1/1 25/25/25
f 4/4/4 10/10/10 9/9/9
f 3/3/3 11/11/11 10/10/10
f 10/10/10 4/4/4 3/3/3
f 37/37/37 25/25/25 38/38/38
f 25/25/25 37/37/37 36/36/36
f 29/29/29 18/18/18 30/30/30
f 17/17/17 30/30/30 18/18/18
f 29/29/29 28/28/28 19/19/19
f 19/19/19 28/28/28 27/27/27
f 19/19/19 18/18/18 29/29/29
f 27/27/27 26/26/26 20/20/20
f 26/26/26 41/41/41 22/22/22
f 20/20/20 26/26/26 21/21/21
f 21/21/21 26/26/26 22/22/22
f 20/20/20 19/19/19 27/27/27
f 24/24/24 39/39/39 38/38/38
f 5/5/5 4/4/4 8/8/8
f 9/9/9 8/8/8 4/4/4
f 23/23/23 39/39/39 24/24/24
f 24/24/24 38/38/38 25/25/25
f 40/40/40 23/23/23 41/41/41
f 22/22/22 41/41/41 23/23/23
f 7/7/7 6/6/6 5/5/5
f 8/8/8 7/7/7 5/5/5
f 40/40/40 39/39/39 23/23/23
f 74/74/74 75/75/75 56/56/56
f 76/76/76 55/55/55 75/75/75
f 56/56/56 75/75/75 55/55/55
f 76/76/76 42/42/42 55/55/55
f 74/74/74 56/56/56 57/57/57
f 73/73/73 58/58/58 72/72/72
f 71/71/71 72/72/72 58/58/58
f 73/73/73 74/74/74 57/57/57
f 58/58/58 73/73/73 57/57/57
f 77/77/77 42/42/42 76/76/76
f 53/53/53 54/54/54 42/42/42
f 55/55/55 42/42/42 54/54/54
f 52/52/52 53/53/53 43/43/43
f 42/42/42 43/43/43 53/53/53
f 44/44/44 52/52/52 43/43/43
f 77/77/77 66/66/66 42/42/42
f 45/45/45 50/50/50 51/51/51
f 44/44/44 51/51/51 52/52/52
f 51/51/51 44/44/44 45/45/45
f 78/78/78 79/79/79 66/66/66
f 66/66/66 77/77/77 78/78/78
f 70/70/70 71/71/71 59/59/59
f 58/58/58 59/59/59 71/71/71
f 70/70/70 60/60/60 69/69/69
f 60/60/60 68/68/68 69/69/69
f 60/60/60 70/70/70 59/59/59
f 68/68/68 61/61/61 67/67/67
f 67/67/67 63/63/63 82/82/82
f 61/61/61 62/62/62 67/67/67
f 62/62/62 63/63/63 67/67/67
f 61/61/61 68/68/68 60/60/60
f 65/65/65 79/79/79 80/80/80
f 46/46/46 49/49/49 45/45/45
f 50/50/50 45/45/45 49/49/49
f 64/64/64 65/65/65 80/80/80
f 65/65/65 66/66/66 79/79/79
f 81/81/81 82/82/82 64/64/64
f 63/63/63 64/64/64 82/82/82
f 48/48/48 46/46/46 47/47/47
f 49/49/49 46/46/46 48/48/48
f 81/81/81 64/64/64 80/80/80
f 95/95/95 83/83/83 85/85/85
f 86/86/86 85/85/85 87/87/87 88/88/88
f 84/84/84 95/95/95 86/86/86
f 85/85/85 86/86/86 95/95/95
f 91/91/91 92/92/92 90/90/90 89/89/89
f 93/93/93 94/94/94 92/92/92 91/91/91
f 89/89/89 90/90/90 88/88/88 87/87/87
f 97/97/97 96/96/96 98/98/98 99/99/99
f 102/102/102 103/103/103 101/101/101 100/100/100
f 106/106/106 107/107/107 105/105/105 104/104/104
f 108/108/108 109/109/109 107/107/107 106/106/106
f 104/104/104 105/105/105 103/103/103 102/102/102
f 112/112/112 113/113/113 111/111/111 110/110/110
f 116/116/116 117/117/117 115/115/115 114/114/114
f 118/118/118 119/119/119 117/117/117 116/116/116
f 114/114/114 115/115/115 113/113/113 112/112/112
f 110/110/110 111/111/111 109/109/109 108/108/108
f 119/119/119 118/118/118 120/120/120 121/121/121
f 122/122/122 123/123/123 121/121/121 120/120/120
f 126/126/126 127/127/127 125/125/125 124/124/124
f 128/128/128 129/129/129 127/127/127 126/126/126
f 124/124/124 125/125/125 123/123/123 122/122/122
f 132/132/132 133/133/133 131/131/131 130/130/130
f 136/136/136 137/137/137 135/135/135 134/134/134
f 140/140/140 136/136/136 138/138/138
f 134/134/134 135/135/135 133/133/133 132/132/132
f 130/130/130 131/131/131 129/129/129 128/128/128
f 140/140/140 139/139/139 137/137/137
f 136/136/136 140/140/140 137/137/137
f 143/143/143 141/141/141 142/142/142 144/144/144
f 147/147/147 145/145/145 146/146/146 148/148/148
f 145/145/145 143/143/143 144/144/144 146/146/146
f 151/151/151 149/149/149 150/150/150 152/152/152
f 155/155/155 153/153/153 154/154/154 156/156/156
f 153/153/153 151/151/151 152/152/152 154/154/154
f 149/149/149 147/147/147 148/148/148 150/150/150
f 157/157/157 155/155/155 156/156/156 158/158/158
f 161/161/161 159/159/159 160/160/160 162/162/162
f 165/165/165 163/163/163 164/164/164 166/166/166
f 163/163/163 161/161/161 162/162/162 164/164/164
f 169/169/169 167/167/167 168/168/168 170/170/170
f 173/173/173 171/171/171 172/172/172 174/174/174
f 171/171/171 169/169/169 170/170/170 172/172/172
f 167/167/167 165/165/165 166/166/166 168/168/168
f 159/159/159 157/157/157 158/158/158 160/160/160
