# Rhino

mtllib 9.mtl
usemtl diffuse_Black
v 0.787162184715271 0 4.9695944786071777
v 1.5846035480499268 0 5.1145029067993164
v 2.3392884731292725 0 5.0656466484069824
v 3.0322113037109375 0 4.7212591171264648
v 3.5015926361083984 0 4.1266555786132813
v 3.7917475700378418 0 3.3788297176361084
v 3.9160223007202148 0 2.6124989986419678
v 3.9005026817321777 0 1.8177400827407837
v 3.7211315631866455 0 1.0289252996444702
v 3.3408875465393066 0 0.38402649760246277
v 2.7128939628601074 0 -0.04060542955994606
v 1.9222687482833862 0 -0.1082996129989624
v 1.2140707969665527 0 0.1810985803604126
v 0.71635794639587402 0 0.78231638669967651
v 0.52993649244308472 0 1.5327095985412598
v 0.65189790725708008 0 2.3072731494903564
v 1.1208091974258423 0 2.9297449588775635
v 1.8210508823394775 0 3.2356522083282471
v 2.5776691436767578 0 3.129241943359375
v 3.1891891956329346 0 2.625
v 3.1153903007507324 0 3.4037039279937744
v 2.8395271301269531 0 4.0962839126586914
v 2.2806780338287354 0 4.5564370155334473
v 1.5275430679321289 0 4.5968632698059082
v 0.787162184715271 0 4.4020271301269531
v 1.1925675868988037 0 1.5389041900634766
v 1.2457448244094849 0 1.087393045425415
v 1.4134675264358521 0 0.72344374656677246
v 1.761479377746582 0 0.44323939085006714
v 2.1949629783630371 0 0.37681201100349426
v 2.607384204864502 0 0.50099968910217285
v 2.9160308837890625 0 0.80082458257675171
v 3.097710132598877 0 1.185015082359314
v 3.1738872528076172 0 1.6257925033569336
v 3.1408829689025879 0 2.066133975982666
v 2.9148695468902588 0 2.448667049407959
v 2.5695528984069824 0 2.6903443336486816
v 2.1554055213928223 0 2.7702703475952148
v 1.7192091941833496 0 2.6678214073181152
v 1.4085416793823242 0 2.3790414333343506
v 1.2400037050247192 0 1.9821642637252808
v 0.787162184715271 1.5 4.9695944786071777
v 1.5846035480499268 1.5 5.1145029067993164
v 2.3392884731292725 1.5 5.0656466484069824
v 3.0322113037109375 1.5 4.7212591171264648
v 3.5015926361083984 1.5 4.1266555786132813
v 3.7917475700378418 1.5 3.3788297176361084
v 3.9160223007202148 1.5 2.6124989986419678
v 3.9005026817321777 1.5 1.8177400827407837
v 3.7211315631866455 1.5 1.0289252996444702
v 3.3408875465393066 1.5 0.38402649760246277
v 2.7128939628601074 1.5 -0.04060542955994606
v 1.9222687482833862 1.5 -0.1082996129989624
v 1.2140707969665527 1.5 0.1810985803604126
v 0.71635794639587402 1.5 0.78231638669967651
v 0.52993649244308472 1.5 1.5327095985412598
v 0.65189790725708008 1.5 2.3072731494903564
v 1.1208091974258423 1.5 2.9297449588775635
v 1.8210508823394775 1.5 3.2356522083282471
v 2.5776691436767578 1.5 3.129241943359375
v 3.1891891956329346 1.5 2.625
v 3.1153903007507324 1.5 3.4037039279937744
v 2.8395271301269531 1.5 4.0962839126586914
v 2.2806780338287354 1.5 4.5564370155334473
v 1.5275430679321289 1.5 4.5968632698059082
v 0.787162184715271 1.5 4.4020271301269531
v 1.1925675868988037 1.5 1.5389041900634766
v 1.2457448244094849 1.5 1.087393045425415
v 1.4134675264358521 1.5 0.72344374656677246
v 1.761479377746582 1.5 0.44323939085006714
v 2.1949629783630371 1.5 0.37681201100349426
v 2.607384204864502 1.5 0.50099968910217285
v 2.9160308837890625 1.5 0.80082458257675171
v 3.097710132598877 1.5 1.185015082359314
v 3.1738872528076172 1.5 1.6257925033569336
v 3.1408829689025879 1.5 2.066133975982666
v 2.9148695468902588 1.5 2.448667049407959
v 2.5695528984069824 1.5 2.6903443336486816
v 2.1554055213928223 1.5 2.7702703475952148
v 1.7192091941833496 1.5 2.6678214073181152
v 1.4085416793823242 1.5 2.3790414333343506
v 1.2400037050247192 1.5 1.9821642637252808
v 0.787162184715271 0 4.9695944786071777
v 0.787162184715271 1.5 4.9695944786071777
v 1.5846035480499268 0 5.1145029067993164
v 1.5846035480499268 1.5 5.1145029067993164
v 2.3392884731292725 0 5.0656466484069824
v 2.3392884731292725 1.5 5.0656466484069824
v 3.0322113037109375 0 4.7212591171264648
v 3.0322113037109375 1.5 4.7212591171264648
v 3.5015926361083984 0 4.1266555786132813
v 3.5015926361083984 1.5 4.1266555786132813
v 3.7917475700378418 0 3.3788297176361084
v 3.7917475700378418 1.5 3.3788297176361084
v 3.9160223007202148 0 2.6124989986419678
v 3.9160223007202148 1.5 2.6124989986419678
v 3.9005026817321777 0 1.8177400827407837
v 3.9005026817321777 1.5 1.8177400827407837
v 3.7211315631866455 0 1.0289252996444702
v 3.7211315631866455 1.5 1.0289252996444702
v 3.3408875465393066 0 0.38402649760246277
v 3.3408875465393066 1.5 0.38402649760246277
v 2.7128939628601074 0 -0.04060542955994606
v 2.7128939628601074 1.5 -0.04060542955994606
v 1.9222687482833862 0 -0.1082996129989624
v 1.9222687482833862 1.5 -0.1082996129989624
v 1.2140707969665527 0 0.1810985803604126
v 1.2140707969665527 1.5 0.1810985803604126
v 0.71635794639587402 0 0.78231638669967651
v 0.71635794639587402 1.5 0.78231638669967651
v 0.52993649244308472 0 1.5327095985412598
v 0.52993649244308472 1.5 1.5327095985412598
v 0.65189790725708008 0 2.3072731494903564
v 0.65189790725708008 1.5 2.3072731494903564
v 1.1208091974258423 0 2.9297449588775635
v 1.1208091974258423 1.5 2.9297449588775635
v 1.8210508823394775 0 3.2356522083282471
v 1.8210508823394775 1.5 3.2356522083282471
v 2.5776691436767578 0 3.129241943359375
v 2.5776691436767578 1.5 3.129241943359375
v 3.1891891956329346 0 2.625
v 3.1891891956329346 1.5 2.625
v 3.1891891956329346 0.75 2.625
v 3.1891891956329346 0 2.625
v 3.1891891956329346 1.5 2.625
v 3.1153903007507324 0 3.4037039279937744
v 3.1153903007507324 1.5 3.4037039279937744
v 2.8395271301269531 0 4.0962839126586914
v 2.8395271301269531 1.5 4.0962839126586914
v 2.2806780338287354 0 4.5564370155334473
v 2.2806780338287354 1.5 4.5564370155334473
v 1.5275430679321289 0 4.5968632698059082
v 1.5275430679321289 1.5 4.5968632698059082
v 0.787162184715271 0 4.4020271301269531
v 0.787162184715271 1.5 4.4020271301269531
v 3.1891891956329346 0.75 2.625
v 0.787162184715271 0 4.4020271301269531
v 0.787162184715271 1.5 4.4020271301269531
v 0.787162184715271 0 4.9695944786071777
v 0.787162184715271 1.5 4.9695944786071777
v 1.1925675868988037 0 1.5389041900634766
v 1.1925675868988037 1.5 1.5389041900634766
v 1.2400037050247192 0 1.9821642637252808
v 1.2400037050247192 1.5 1.9821642637252808
v 1.4085416793823242 0 2.3790414333343506
v 1.4085416793823242 1.5 2.3790414333343506
v 1.7192091941833496 0 2.6678214073181152
v 1.7192091941833496 1.5 2.6678214073181152
v 2.1554055213928223 0 2.7702703475952148
v 2.1554055213928223 1.5 2.7702703475952148
v 2.5695528984069824 0 2.6903443336486816
v 2.5695528984069824 1.5 2.6903443336486816
v 2.9148695468902588 0 2.448667049407959
v 2.9148695468902588 1.5 2.448667049407959
v 3.1408829689025879 0 2.066133975982666
v 3.1408829689025879 1.5 2.066133975982666
v 3.1738872528076172 0 1.6257925033569336
v 3.1738872528076172 1.5 1.6257925033569336
v 3.097710132598877 0 1.185015082359314
v 3.097710132598877 1.5 1.185015082359314
v 2.9160308837890625 0 0.80082458257675171
v 2.9160308837890625 1.5 0.80082458257675171
v 2.607384204864502 0 0.50099968910217285
v 2.607384204864502 1.5 0.50099968910217285
v 2.1949629783630371 0 0.37681201100349426
v 2.1949629783630371 1.5 0.37681201100349426
v 1.761479377746582 0 0.44323939085006714
v 1.761479377746582 1.5 0.44323939085006714
v 1.4134675264358521 0 0.72344374656677246
v 1.4134675264358521 1.5 0.72344374656677246
v 1.2457448244094849 0 1.087393045425415
v 1.2457448244094849 1.5 1.087393045425415
v 1.1925675868988037 0 1.5389041900634766
v 1.1925675868988037 1.5 1.5389041900634766
vt 0.33963832259178162 0.39639291167259216
vt 0.3493306040763855 0.44995394349098206
vt 0.34606283903121948 0.50064325332641602
vt 0.32302823662757874 0.54718416929244995
vt 0.28325778245925903 0.57871067523956299
vt 0.23323896527290344 0.59819930791854858
vt 0.18198241293430328 0.60654634237289429
vt 0.12882442772388458 0.60550391674041748
vt 0.076064035296440125 0.59345626831054688
vt 0.032929558306932449 0.56791675090789795
vt 0.0045277676545083523 0.52573686838150024
vt 0 0.47263363003730774
vt 0.019356584176421165 0.42506670951843262
vt 0.059569437056779861 0.39163726568222046
vt 0.10975997895002365 0.37911605834960938
vt 0.16156718134880066 0.38730773329734802
vt 0.20320162177085876 0.41880267858505249
vt 0.22366242110729218 0.46583521366119385
vt 0.21654511988162994 0.51665431261062622
vt 0.18281854689121246 0.55772775411605835
vt 0.23490266501903534 0.55277097225189209
vt 0.28122633695602417 0.53424233198165894
vt 0.31200399994850159 0.49670657515525818
vt 0.31470793485641479 0.44612142443656921
vt 0.3016761839389801 0.39639291167259216
vt 0.11017431318759918 0.42362242937088013
vt 0.079974688589572906 0.42719411849975586
vt 0.055631693452596664 0.43845942616462708
vt 0.03689005970954895 0.46183401346206665
vt 0.032447014003992081 0.49094942212104797
vt 0.040753386914730072 0.51865017414093018
vt 0.060807373374700546 0.53938078880310059
vt 0.086504213511943817 0.55158346891403198
vt 0.11598590016365051 0.55669999122619629
vt 0.14543844759464264 0.55448323488235474
vt 0.17102441191673279 0.5393027663230896
vt 0.18718914687633514 0.5161091685295105
vt 0.19253505766391754 0.48829251527786255
vt 0.18568268418312073 0.45899489521980286
vt 0.16636745631694794 0.43812856078147888
vt 0.13982205092906952 0.42680850625038147
vt 0.56945937871932983 0.0097329206764698029
vt 0.62267547845840454 0
vt 0.6730383038520813 0.003281464334577322
vt 0.71927946805953979 0.026412637904286385
vt 0.75060290098190308 0.066349871456623077
vt 0.7699660062789917 0.11657842993736267
vt 0.77825927734375 0.16804991662502289
vt 0.77722358703613281 0.22143080830574036
vt 0.76525354385375977 0.27441245317459106
vt 0.73987853527069092 0.31772780418395996
vt 0.69797027111053467 0.34624868631362915
vt 0.64520907402038574 0.3507954478263855
vt 0.59794855117797852 0.3313576877117157
vt 0.56473439931869507 0.29097619652748108
vt 0.55229383707046509 0.24057519435882568
vt 0.56043273210525513 0.18855075538158417
vt 0.59172487258911133 0.14674171805381775
vt 0.63845443725585938 0.12619513273239136
vt 0.68894624710083008 0.13334228098392487
vt 0.72975516319274902 0.16721026599407196
vt 0.7248302698135376 0.11490774899721146
vt 0.70642095804214478 0.068389825522899628
vt 0.66912698745727539 0.037483099848031998
vt 0.61886763572692871 0.034767832607030869
vt 0.56945937871932983 0.047854237258434296
vt 0.59651350975036621 0.24015912413597107
vt 0.60006225109100342 0.27048540115356445
vt 0.6112549901008606 0.29493045806884766
vt 0.63447904586791992 0.31375068426132202
vt 0.66340690851211548 0.3182123601436615
vt 0.69092923402786255 0.30987116694450378
vt 0.71152633428573608 0.28973308205604553
vt 0.72365039587020874 0.26392847299575806
vt 0.72873395681381226 0.2343231737613678
vt 0.7265315055847168 0.20474712550640106
vt 0.71144884824752808 0.17905387282371521
vt 0.6884046196937561 0.16282135248184204
vt 0.6607670783996582 0.1574530303478241
vt 0.63165819644927979 0.16433413326740265
vt 0.61092627048492432 0.183730348944664
vt 0.59967911243438721 0.21038706600666046
vt 0.45007979869842529 0
vt 0.3507954478263855 0
vt 0.45007979869842529 0.067183345556259155
vt 0.3507954478263855 0.067183345556259155
vt 0.45007979869842529 0.12352293729782104
vt 0.3507954478263855 0.12352293729782104
vt 0.45007979869842529 0.17618438601493835
vt 0.3507954478263855 0.17618438601493835
vt 0.45007979869842529 0.2373146265745163
vt 0.3507954478263855 0.2373146265745163
vt 0.45007979869842529 0.2932780385017395
vt 0.3507954478263855 0.2932780385017395
vt 0.45007979869842529 0.34435734152793884
vt 0.3507954478263855 0.34435734152793884
vt 0.45007979869842529 0.38412100076675415
vt 0.3507954478263855 0.38412100076675415
vt 0.45007979869842529 0.42301413416862488
vt 0.3507954478263855 0.42301413416862488
vt 0.45007979869842529 0.46455302834510803
vt 0.3507954478263855 0.46455302834510803
vt 0.45007979869842529 0.51203936338424683
vt 0.3507954478263855 0.51203936338424683
vt 0.45007979869842529 0.56116223335266113
vt 0.3507954478263855 0.56116223335266113
vt 0.45007979869842529 0.61532419919967651
vt 0.3507954478263855 0.61532419919967651
vt 0.45007979869842529 0.66846400499343872
vt 0.3507954478263855 0.66846400499343872
vt 0.45007979869842529 0.71904933452606201
vt 0.3507954478263855 0.71904933452606201
vt 0.45007979869842529 0.77461075782775879
vt 0.3507954478263855 0.77461075782775879
vt 0.45007979869842529 0.83238667249679565
vt 0.3507954478263855 0.83238667249679565
vt 0.45007979869842529 0.89180558919906616
vt 0.3507954478263855 0.89180558919906616
vt 0.45007979869842529 0.94766068458557129
vt 0.3507954478263855 0.94766068458557129
vt 0.45007979869842529 0.99853515625
vt 0.3507954478263855 0.99853515625
vt 0.4004376232624054 0.99853515625
vt 0 0.10407107323408127
vt 0 0.20482027530670166
vt 0.039078537374734879 0.10407107323408127
vt 0.039078537374734879 0.20482027530670166
vt 0.085062392055988312 0.10407107323408127
vt 0.085062392055988312 0.20482027530670166
vt 0.13949313759803772 0.10407107323408127
vt 0.13949313759803772 0.20482027530670166
vt 0.20034149289131165 0.10407107323408127
vt 0.20034149289131165 0.20482027530670166
vt 0.25518718361854553 0.10407107323408127
vt 0.25518718361854553 0.20482027530670166
vt 0 0.15444567799568176
vt 0.10074919462203979 0
vt 0 0
vt 0.10074919462203979 0.038121316581964493
vt 0 0.038121316581964493
vt 0.55082899332046509 0
vt 0.45154464244842529 0
vt 0.55082899332046509 0.02509867399930954
vt 0.45154464244842529 0.02509867399930954
vt 0.55082899332046509 0.053554639220237732
vt 0.45154464244842529 0.053554639220237732
vt 0.55082899332046509 0.084832280874252319
vt 0.45154464244842529 0.084832280874252319
vt 0.55082899332046509 0.11755082756280899
vt 0.45154464244842529 0.11755082756280899
vt 0.55082899332046509 0.14858038723468781
vt 0.45154464244842529 0.14858038723468781
vt 0.55082899332046509 0.17985276877880096
vt 0.45154464244842529 0.17985276877880096
vt 0.55082899332046509 0.21410080790519714
vt 0.45154464244842529 0.21410080790519714
vt 0.55082899332046509 0.24296258389949799
vt 0.45154464244842529 0.24296258389949799
vt 0.55082899332046509 0.2662920355796814
vt 0.45154464244842529 0.2662920355796814
vt 0.55082899332046509 0.29118779301643372
vt 0.45154464244842529 0.29118779301643372
vt 0.55082899332046509 0.3192296028137207
vt 0.45154464244842529 0.3192296028137207
vt 0.55082899332046509 0.34864440560340881
vt 0.45154464244842529 0.34864440560340881
vt 0.55082899332046509 0.3802124559879303
vt 0.45154464244842529 0.3802124559879303
vt 0.55082899332046509 0.41495442390441895
vt 0.45154464244842529 0.41495442390441895
vt 0.55082899332046509 0.443095862865448
vt 0.45154464244842529 0.443095862865448
vt 0.55082899332046509 0.47020331025123596
vt 0.45154464244842529 0.47020331025123596
vn 0 -1 0
vn 0 -1 0
vn 0 -1 0
vn 0 -1 0
vn 0 -1 0
vn 0 -1 0
vn 0 -1 0
vn 0 -1 0
vn 0 -1 0
vn 0 -1 0
vn 0 -1 0
vn 0 -1 0
vn 0 -1 0
vn 0 -1 0
vn 0 -1 0
vn 0 -1 0
vn 0 -1 0
vn 0 -1 0
vn 0 -1 0
vn 0 -1 0
vn 0 -1 0
vn 0 -1 0
vn 0 -1 0
vn 0 -1 0
vn 0 -1 0
vn 0 -1 0
vn 0 -1 0
vn 0 -1 0
vn 0 -1 0
vn 0 -1 0
vn 0 -1 0
vn 0 -1 0
vn 0 -1 0
vn 0 -1 0
vn 0 -1 0
vn 0 -1 0
vn 0 -1 0
vn 0 -1 0
vn 0 -1 0
vn 0 -1 0
vn 0 -1 0
vn 0 1 0
vn 0 1 0
vn 0 1 0
vn 0 1 0
vn 0 1 0
vn 0 1 0
vn 0 1 0
vn 0 1 0
vn 0 1 0
vn 0 1 0
vn 0 1 0
vn 0 1 0
vn 0 1 0
vn 0 1 0
vn 0 1 0
vn 0 1 0
vn 0 1 0
vn 0 1 0
vn 0 1 0
vn 0 1 0
vn 0 1 0
vn 0 1 0
vn 0 1 0
vn 0 1 0
vn 0 1 0
vn 0 1 0
vn 0 1 0
vn 0 1 0
vn 0 1 0
vn 0 1 0
vn 0 1 0
vn 0 1 0
vn 0 1 0
vn 0 1 0
vn 0 1 0
vn 0 1 0
vn 0 1 0
vn 0 1 0
vn 0 1 0
vn 0 1 0
vn 0 1 0
vn -0.24130114912986755 0 0.97045028209686279
vn -0.24130114912986755 0 0.97045028209686279
vn -0.08891017735004425 0 0.99603962898254395
vn -0.08891017735004425 0 0.99603962898254395
vn 0.23309838771820068 0 0.97245317697525024
vn 0.23309838771820068 0 0.97245317697525024
vn 0.64526820182800293 0 0.76395612955093384
vn 0.64526820182800293 0 0.76395612955093384
vn 0.87909448146820068 0 0.47664752602577209
vn 0.87909448146820068 0 0.47664752602577209
vn 0.96660411357879639 0 0.25627416372299194
vn 0.96660411357879639 0 0.25627416372299194
vn 0.9978102445602417 0 0.066141694784164429
vn 0.9978102445602417 0 0.066141694784164429
vn 0.99440693855285645 0 -0.10561665147542953
vn 0.99440693855285645 0 -0.10561665147542953
vn 0.93504583835601807 0 -0.35452690720558167
vn 0.93504583835601807 0 -0.35452690720558167
vn 0.74911308288574219 0 -0.66244214773178101
vn 0.74911308288574219 0 -0.66244214773178101
vn 0.3220941424369812 0 -0.94670766592025757
vn 0.3220941424369812 0 -0.94670766592025757
vn -0.13670065999031067 0 -0.99061238765716553
vn -0.13670065999031067 0 -0.99061238765716553
vn -0.60208988189697266 0 -0.79842835664749146
vn -0.60208988189697266 0 -0.79842835664749146
vn -0.89593392610549927 0 -0.44418740272521973
vn -0.89593392610549927 0 -0.44418740272521973
vn -0.99877995252609253 0 -0.049382369965314865
vn -0.99877995252609253 0 -0.049382369965314865
vn -0.92256253957748413 0 0.38584762811660767
vn -0.92256253957748413 0 0.38584762811660767
vn -0.63287585973739624 0 0.774253249168396
vn -0.63287585973739624 0 0.774253249168396
vn -0.13528522849082947 0 0.9908066987991333
vn -0.13528522849082947 0 0.9908066987991333
vn 0.42544195055961609 0 0.90498572587966919
vn 0.42544195055961609 0 0.90498572587966919
vn 0.77675575017929077 0 0.62980192899703979
vn 0.77675575017929077 0 0.62980192899703979
vn 0.77675575017929077 0 0.62980192899703979
vn -1 0 0
vn -1 0 0
vn -0.97796159982681274 0 -0.20878498256206512
vn -0.97796159982681274 0 -0.20878498256206512
vn -0.83409446477890015 0 -0.55162161588668823
vn -0.83409446477890015 0 -0.55162161588668823
vn -0.34168502688407898 0 -0.93981450796127319
vn -0.34168502688407898 0 -0.93981450796127319
vn 0.15254686772823334 0 -0.98829621076583862
vn 0.15254686772823334 0 -0.98829621076583862
vn 0.33124449849128723 0 -0.94354492425918579
vn 0.33124449849128723 0 -0.94354492425918579
vn -1 0 0
vn -1 0 0
vn -1 0 0
vn -1 0 0
vn -1 0 0
vn 1 0 0
vn 1 0 0
vn 0.97295165061950684 0 -0.23100894689559937
vn 0.97295165061950684 0 -0.23100894689559937
vn 0.82938748598098755 0 -0.55867379903793335
vn 0.82938748598098755 0 -0.55867379903793335
vn 0.47493264079093933 0 -0.88002216815948486
vn 0.47493264079093933 0 -0.88002216815948486
vn 0 0 -1
vn 0 0 -1
vn -0.3887622058391571 0 -0.92133814096450806
vn -0.3887622058391571 0 -0.92133814096450806
vn -0.72267407178878784 0 -0.6911889910697937
vn -0.72267407178878784 0 -0.6911889910697937
vn -0.95924323797225952 0 -0.28258159756660461
vn -0.95924323797225952 0 -0.28258159756660461
vn -0.99796378612518311 0 0.063783109188079834
vn -0.99796378612518311 0 0.063783109188079834
vn -0.95705407857894897 0 0.28990942239761353
vn -0.95705407857894897 0 0.28990942239761353
vn -0.82408863306045532 0 0.56646084785461426
vn -0.82408863306045532 0 0.56646084785461426
vn -0.51704442501068115 0 0.85595858097076416
vn -0.51704442501068115 0 0.85595858097076416
vn -0.058011334389448166 0 0.99831593036651611
vn -0.058011334389448166 0 0.99831593036651611
vn 0.38348659873008728 0 0.9235464334487915
vn 0.38348659873008728 0 0.9235464334487915
vn 0.8097766637802124 0 0.5867382287979126
vn 0.8097766637802124 0 0.5867382287979126
vn 0.96673744916915894 0 0.25577086210250854
vn 0.96673744916915894 0 0.25577086210250854
vn 1 0 0
vn 1 0 0
f 17/17/17 16/16/16 41/41/41
f 17/17/17 40/40/40 39/39/39
f 40/40/40 17/17/17 41/41/41
f 1/1/1 25/25/25 24/24/24
f 1/1/1 24/24/24 2/2/2
f 38/38/38 18/18/18 39/39/39
f 18/18/18 17/17/17 39/39/39
f 18/18/18 38/38/38 19/19/19
f 2/2/2 24/24/24 23/23/23
f 26/26/26 14/14/14 27/27/27
f 16/16/16 15/15/15 26/26/26
f 15/15/15 14/14/14 26/26/26
f 27/27/27 14/14/14 13/13/13
f 41/41/41 16/16/16 26/26/26
f 13/13/13 28/28/28 27/27/27
f 12/12/12 30/30/30 29/29/29
f 11/11/11 30/30/30 12/12/12
f 29/29/29 13/13/13 12/12/12
f 28/28/28 13/13/13 29/29/29
f 4/4/4 23/23/23 22/22/22
f 2/2/2 23/23/23 3/3/3
f 37/37/37 36/36/36 19/19/19
f 19/19/19 38/38/38 37/37/37
f 4/4/4 3/3/3 23/23/23
f 22/22/22 21/21/21 5/5/5
f 20/20/20 6/6/6 21/21/21
f 5/5/5 21/21/21 6/6/6
f 7/7/7 6/6/6 20/20/20
f 4/4/4 22/22/22 5/5/5
f 20/20/20 19/19/19 36/36/36
f 11/11/11 32/32/32 31/31/31
f 32/32/32 11/11/11 10/10/10
f 30/30/30 11/11/11 31/31/31
f 10/10/10 33/33/33 32/32/32
f 8/8/8 7/7/7 35/35/35
f 20/20/20 36/36/36 35/35/35
f 34/34/34 8/8/8 35/35/35
f 33/33/33 10/10/10 9/9/9
f 8/8/8 34/34/34 9/9/9
f 34/34/34 33/33/33 9/9/9
f 35/35/35 7/7/7 20/20/20
f 58/58/58 82/82/82 57/57/57
f 58/58/58 80/80/80 81/81/81
f 81/81/81 82/82/82 58/58/58
f 42/42/42 65/65/65 66/66/66
f 42/42/42 43/43/43 65/65/65
f 79/79/79 80/80/80 59/59/59
f 59/59/59 80/80/80 58/58/58
f 59/59/59 60/60/60 79/79/79
f 43/43/43 64/64/64 65/65/65
f 67/67/67 68/68/68 55/55/55
f 57/57/57 67/67/67 56/56/56
f 56/56/56 67/67/67 55/55/55
f 68/68/68 54/54/54 55/55/55
f 82/82/82 67/67/67 57/57/57
f 54/54/54 68/68/68 69/69/69
f 53/53/53 70/70/70 71/71/71
f 52/52/52 53/53/53 71/71/71
f 70/70/70 53/53/53 54/54/54
f 69/69/69 70/70/70 54/54/54
f 45/45/45 63/63/63 64/64/64
f 43/43/43 44/44/44 64/64/64
f 78/78/78 60/60/60 77/77/77
f 60/60/60 78/78/78 79/79/79
f 45/45/45 64/64/64 44/44/44
f 63/63/63 46/46/46 62/62/62
f 61/61/61 62/62/62 47/47/47
f 46/46/46 47/47/47 62/62/62
f 48/48/48 61/61/61 47/47/47
f 45/45/45 46/46/46 63/63/63
f 61/61/61 77/77/77 60/60/60
f 52/52/52 72/72/72 73/73/73
f 73/73/73 51/51/51 52/52/52
f 71/71/71 72/72/72 52/52/52
f 51/51/51 73/73/73 74/74/74
f 49/49/49 76/76/76 48/48/48
f 61/61/61 76/76/76 77/77/77
f 75/75/75 76/76/76 49/49/49
f 74/74/74 50/50/50 51/51/51
f 49/49/49 50/50/50 75/75/75
f 75/75/75 50/50/50 74/74/74
f 76/76/76 61/61/61 48/48/48
f 85/85/85 86/86/86 84/84/84 83/83/83
f 89/89/89 90/90/90 88/88/88 87/87/87
f 91/91/91 92/92/92 90/90/90 89/89/89
f 87/87/87 88/88/88 86/86/86 85/85/85
f 95/95/95 96/96/96 94/94/94 93/93/93
f 99/99/99 100/100/100 98/98/98 97/97/97
f 101/101/101 102/102/102 100/100/100 99/99/99
f 97/97/97 98/98/98 96/96/96 95/95/95
f 93/93/93 94/94/94 92/92/92 91/91/91
f 102/102/102 101/101/101 103/103/103 104/104/104
f 105/105/105 106/106/106 104/104/104 103/103/103
f 109/109/109 110/110/110 108/108/108 107/107/107
f 111/111/111 112/112/112 110/110/110 109/109/109
f 107/107/107 108/108/108 106/106/106 105/105/105
f 115/115/115 116/116/116 114/114/114 113/113/113
f 119/119/119 120/120/120 118/118/118 117/117/117
f 123/123/123 119/119/119 121/121/121
f 117/117/117 118/118/118 116/116/116 115/115/115
f 113/113/113 114/114/114 112/112/112 111/111/111
f 123/123/123 122/122/122 120/120/120
f 119/119/119 123/123/123 120/120/120
f 136/136/136 124/124/124 126/126/126
f 127/127/127 126/126/126 128/128/128 129/129/129
f 125/125/125 136/136/136 127/127/127
f 126/126/126 127/127/127 136/136/136
f 132/132/132 133/133/133 131/131/131 130/130/130
f 134/134/134 135/135/135 133/133/133 132/132/132
f 130/130/130 131/131/131 129/129/129 128/128/128
f 138/138/138 137/137/137 139/139/139 140/140/140
f 143/143/143 141/141/141 142/142/142 144/144/144
f 147/147/147 145/145/145 146/146/146 148/148/148
f 145/145/145 143/143/143 144/144/144 146/146/146
f 151/151/151 149/149/149 150/150/150 152/152/152
f 155/155/155 153/153/153 154/154/154 156/156/156
f 153/153/153 151/151/151 152/152/152 154/154/154
f 149/149/149 147/147/147 148/148/148 150/150/150
f 157/157/157 155/155/155 156/156/156 158/158/158
f 161/161/161 159/159/159 160/160/160 162/162/162
f 165/165/165 163/163/163 164/164/164 166/166/166
f 163/163/163 161/161/161 162/162/162 164/164/164
f 169/169/169 167/167/167 168/168/168 170/170/170
f 173/173/173 171/171/171 172/172/172 174/174/174
f 171/171/171 169/169/169 170/170/170 172/172/172
f 167/167/167 165/165/165 166/166/166 168/168/168
f 159/159/159 157/157/157 158/158/158 160/160/160
