v 9.2038965225219727 0 -2.9905271530151367
v 1.9521751403808594 0 -2.6869385242462158
v 3.1586856842041016 0 1.0263192653656006
v 5.6883206367492676 0 7.8293018341064453
v 0 0 3.3212387561798096
v -5.6883206367492676 0 7.8293018341064453
v -3.1586856842041016 0 1.0263192653656006
v -9.2038965225219727 0 -2.9905271530151367
v -1.9521751403808594 0 -2.6869385242462158
v 0 0 -9.6775493621826172
v 1.9521751403808594 0 -2.6869385242462158
v 1.9521751403808594 2.1790423393249512 -2.6869385242462158
v 9.2038965225219727 0 -2.9905271530151367
v 9.2038965225219727 2.1790423393249512 -2.9905271530151367
v 0 0 -9.6775493621826172
v 0 2.1790423393249512 -9.6775493621826172
v 1.9521751403808594 0 -2.6869385242462158
v 1.9521751403808594 2.1790423393249512 -2.6869385242462158
v -1.9521751403808594 0 -2.6869385242462158
v -1.9521751403808594 2.1790423393249512 -2.6869385242462158
v 0 0 -9.6775493621826172
v 0 2.1790423393249512 -9.6775493621826172
v -9.2038965225219727 0 -2.9905271530151367
v -9.2038965225219727 2.1790423393249512 -2.9905271530151367
v -1.9521751403808594 0 -2.6869385242462158
v -1.9521751403808594 2.1790423393249512 -2.6869385242462158
v -3.1586856842041016 0 1.0263192653656006
v -3.1586856842041016 2.1790423393249512 1.0263192653656006
v -9.2038965225219727 0 -2.9905271530151367
v -9.2038965225219727 2.1790423393249512 -2.9905271530151367
v -5.6883206367492676 0 7.8293018341064453
v -5.6883206367492676 2.1790423393249512 7.8293018341064453
v -3.1586856842041016 0 1.0263192653656006
v -3.1586856842041016 2.1790423393249512 1.0263192653656006
v 0 0 3.3212387561798096
v 0 2.1790423393249512 3.3212387561798096
v -5.6883206367492676 0 7.8293018341064453
v -5.6883206367492676 2.1790423393249512 7.8293018341064453
v 5.6883206367492676 0 7.8293018341064453
v 5.6883206367492676 2.1790423393249512 7.8293018341064453
v 0 0 3.3212387561798096
v 0 2.1790423393249512 3.3212387561798096
v 3.1586856842041016 0 1.0263192653656006
v 3.1586856842041016 2.1790423393249512 1.0263192653656006
v 5.6883206367492676 0 7.8293018341064453
v 5.6883206367492676 2.1790423393249512 7.8293018341064453
v 9.2038965225219727 0 -2.9905271530151367
v 9.2038965225219727 2.1790423393249512 -2.9905271530151367
v 3.1586856842041016 0 1.0263192653656006
v 3.1586856842041016 2.1790423393249512 1.0263192653656006
v 9.2038965225219727 2.1790423393249512 -2.9905271530151367
v 1.9521751403808594 2.1790423393249512 -2.6869385242462158
v 0 2.1790423393249512 -9.6775493621826172
v -1.9521751403808594 2.1790423393249512 -2.6869385242462158
v -9.2038965225219727 2.1790423393249512 -2.9905271530151367
v -3.1586856842041016 2.1790423393249512 1.0263192653656006
v -5.6883206367492676 2.1790423393249512 7.8293018341064453
v 0 2.1790423393249512 3.3212387561798096
v 5.6883206367492676 2.1790423393249512 7.8293018341064453
v 3.1586856842041016 2.1790423393249512 1.0263192653656006
vt 0.99853515625 0.63728058338165283
vt 0.82716524600982666 0.74107712507247925
vt 0.79817622900009155 0.63728058338165283
vt 0.75240540504455566 0.44224077463150024
vt 0.69049113988876343 0.63277286291122437
vt 0.49083328247070313 0.61602824926376343
vt 0.65292704105377197 0.7337835431098938
vt 0.5753026008605957 0.91847455501556396
vt 0.73739635944366455 0.80071926116943359
vt 0.88907957077026367 0.93160921335220337
vt 0.55115926265716553 0.20093697309494019
vt 0.49083328247070313 0.20093697309494019
vt 0.55115926265716553 0.40187394618988037
vt 0.49083328247070313 0.40187394618988037
vt 0.80574262142181396 0
vt 0.74541664123535156 0
vt 0.80574262142181396 0.19947212934494019
vt 0.74541664123535156 0.19947212934494019
vt 0.68185961246490479 0.2612629234790802
vt 0.68185961246490479 0.32012403011322021
vt 0.88279658555984497 0.2612629234790802
vt 0.88279658555984497 0.32012403011322021
vt 0.68185961246490479 0.20093697309494019
vt 0.68185961246490479 0.2597980797290802
vt 0.88279658555984497 0.20093697309494019
vt 0.88279658555984497 0.2597980797290802
vt 0.67845094203948975 0
vt 0.61812496185302734 0
vt 0.67845094203948975 0.19947212934494019
vt 0.61812496185302734 0.19947212934494019
vt 0.55115926265716553 0
vt 0.49083328247070313 0
vt 0.55115926265716553 0.19947212934494019
vt 0.49083328247070313 0.19947212934494019
vt 0.68185961246490479 0.38191482424736023
vt 0.68185961246490479 0.44077593088150024
vt 0.88279658555984497 0.38191482424736023
vt 0.88279658555984497 0.44077593088150024
vt 0.68185961246490479 0.32158887386322021
vt 0.68185961246490479 0.38044998049736023
vt 0.88279658555984497 0.32158887386322021
vt 0.88279658555984497 0.38044998049736023
vt 0.93303430080413818 0
vt 0.87270832061767578 0
vt 0.93303430080413818 0.19947212934494019
vt 0.87270832061767578 0.19947212934494019
vt 0.64667236804962158 0.20093697309494019
vt 0.58634644746780396 0.20093697309494019
vt 0.64667236804962158 0.40187394618988037
vt 0.58634644746780396 0.40187394618988037
vt 0.29432865977287292 0.50916671752929688
vt 0.19053210318088531 0.33730238676071167
vt 0 0.39939534664154053
vt 0.13088998198509216 0.24727442860603333
vt 0.013134664855897427 0.084712997078895569
vt 0.19782570004463196 0.16256143152713776
vt 0.31558099389076233 0
vt 0.298836350440979 0.20023387670516968
vt 0.48936843872070313 0.26232683658599854
vt 0.29432865977287292 0.3082297146320343
vn 0 -1 0
vn 0 -1 0
vn 0 -1 0
vn 0 -1 0
vn 0 -1 0
vn 0 -1 0
vn 0 -1 0
vn 0 -1 0
vn 0 -1 0
vn 0 -1 0
vn -0.041827719658613205 0 -0.99912482500076294
vn -0.041827719658613205 0 -0.99912482500076294
vn -0.041827719658613205 0 -0.99912482500076294
vn -0.041827719658613205 0 -0.99912482500076294
vn 0.96314966678619385 0 -0.26896601915359497
vn 0.96314966678619385 0 -0.26896601915359497
vn 0.96314966678619385 0 -0.26896601915359497
vn 0.96314966678619385 0 -0.26896601915359497
vn -0.96314966678619385 0 -0.26896601915359497
vn -0.96314966678619385 0 -0.26896601915359497
vn -0.96314966678619385 0 -0.26896601915359497
vn -0.96314966678619385 0 -0.26896601915359497
vn 0.041827719658613205 0 -0.99912482500076294
vn 0.041827719658613205 0 -0.99912482500076294
vn 0.041827719658613205 0 -0.99912482500076294
vn 0.041827719658613205 0 -0.99912482500076294
vn -0.55343151092529297 0 0.83289468288421631
vn -0.55343151092529297 0 0.83289468288421631
vn -0.55343151092529297 0 0.83289468288421631
vn -0.55343151092529297 0 0.83289468288421631
vn -0.93729871511459351 0 -0.34852707386016846
vn -0.93729871511459351 0 -0.34852707386016846
vn -0.93729871511459351 0 -0.34852707386016846
vn -0.93729871511459351 0 -0.34852707386016846
vn 0.62111020088195801 0 0.78372323513031006
vn 0.62111020088195801 0 0.78372323513031006
vn 0.62111020088195801 0 0.78372323513031006
vn 0.62111020088195801 0 0.78372323513031006
vn -0.62111020088195801 0 0.78372323513031006
vn -0.62111020088195801 0 0.78372323513031006
vn -0.62111020088195801 0 0.78372323513031006
vn -0.62111020088195801 0 0.78372323513031006
vn 0.93729871511459351 0 -0.34852707386016846
vn 0.93729871511459351 0 -0.34852707386016846
vn 0.93729871511459351 0 -0.34852707386016846
vn 0.93729871511459351 0 -0.34852707386016846
vn 0.55343151092529297 0 0.83289468288421631
vn 0.55343151092529297 0 0.83289468288421631
vn 0.55343151092529297 0 0.83289468288421631
vn 0.55343151092529297 0 0.83289468288421631
vn 0 1 0
vn 0 1 0
vn 0 1 0
vn 0 1 0
vn 0 1 0
vn 0 1 0
vn 0 1 0
vn 0 1 0
vn 0 1 0
vn 0 1 0
f 7/7/7 5/5/5 6/6/6
f 9/9/9 7/7/7 8/8/8
f 7/7/7 9/9/9 2/2/2
f 3/3/3 5/5/5 7/7/7
f 5/5/5 3/3/3 4/4/4
f 3/3/3 2/2/2 1/1/1
f 9/9/9 10/10/10 2/2/2
f 7/7/7 2/2/2 3/3/3
f 12/12/12 14/14/14 13/13/13 11/11/11
f 16/16/16 18/18/18 17/17/17 15/15/15
f 20/20/20 22/22/22 21/21/21 19/19/19
f 24/24/24 26/26/26 25/25/25 23/23/23
f 28/28/28 30/30/30 29/29/29 27/27/27
f 32/32/32 34/34/34 33/33/33 31/31/31
f 36/36/36 38/38/38 37/37/37 35/35/35
f 40/40/40 42/42/42 41/41/41 39/39/39
f 44/44/44 46/46/46 45/45/45 43/43/43
f 48/48/48 50/50/50 49/49/49 47/47/47
f 56/56/56 57/57/57 58/58/58
f 54/54/54 55/55/55 56/56/56
f 56/56/56 52/52/52 54/54/54
f 60/60/60 56/56/56 58/58/58
f 58/58/58 59/59/59 60/60/60
f 60/60/60 51/51/51 52/52/52
f 54/54/54 52/52/52 53/53/53
f 56/56/56 60/60/60 52/52/52
